<?xml version="1.0" encoding="UTF-8"?>
<svg width="47px" height="47px" viewBox="0 0 47 47" version="1.1" xmlns="http://www.w3.org/2000/svg" xmlns:xlink="http://www.w3.org/1999/xlink">
    <!-- Generator: Sketch 51.3 (57544) - http://www.bohemiancoding.com/sketch -->
    <title>CTA6@1.5x</title>
    <desc>Created with Sketch.</desc>
    <defs>
        <linearGradient x1="94.6234953%" y1="50%" x2="5.66269137%" y2="55.7266874%" id="linearGradient-1">
            <stop stop-color="#0A6C6E" offset="0%"></stop>
            <stop stop-color="#349D80" offset="100%"></stop>
        </linearGradient>
    </defs>
    <g id="Page-1" stroke="none" stroke-width="1" fill="none" fill-rule="evenodd">
        <g id="Home_2" transform="translate(-583.000000, -838.000000)" fill="url(#linearGradient-1)">
            <g id="CTA6" transform="translate(583.000000, 838.000000)">
                <path d="M42.2050199,35.945348 L41.4610964,35.2030791 C41.2088831,34.9604773 40.8096576,34.9556561 40.5576369,35.2053932 L38.2732657,37.4919826 L37.1108491,36.3271854 C36.8613332,36.0786054 36.5854207,36.152273 36.4950554,36.4926484 L35.0401561,41.9195617 C34.9522957,42.2562729 35.1544132,42.4597267 35.4894774,42.3715956 L40.9142809,40.9155991 C41.2518499,40.8239967 41.3277644,40.5480323 41.0805606,40.3006094 L39.9206488,39.1358122 L42.2050199,36.8494157 C42.4545358,36.5996786 42.4545358,36.1950851 42.2050199,35.945348" id="Fill-1"></path>
                <path d="M44.3021158,32.1943254 C44.7995485,32.379651 45.3520361,32.1249252 45.5338723,31.6323388 C46.5072198,29.0026917 47,26.2305609 47,23.461144 L47,23.459787 L47,23.4562976 C47,17.4603532 44.7088242,11.4500634 40.1311251,6.87003804 C35.553426,2.29001268 29.5431362,0 23.5448654,0 C20.7752547,0.00348939543 18.0033177,0.49142319 15.367661,1.46612765 C14.8702283,1.65009633 14.6215119,2.20025767 14.8058683,2.69652725 C14.9875108,3.19395995 15.5374783,3.44403329 16.0351048,3.25987075 C18.4482156,2.36425926 20.9978006,1.91567809 23.5448654,1.91567809 C29.0600487,1.91567809 34.5703857,4.01668185 38.7749134,8.22372961 C42.9868075,12.4331036 45.0818018,17.9434406 45.0866482,23.461144 C45.0866482,26.0058826 44.6370977,28.549458 43.737803,30.966252 C43.5559667,31.4611646 43.804683,32.0124891 44.3021158,32.1943254" id="Fill-3"></path>
                <path d="M2.69772994,14.805338 C2.20265181,14.6211802 1.65252193,14.8735733 1.4660438,15.3673101 C0.490232019,17.9994098 0,20.7687555 0,23.5417843 C0,29.541258 2.28891249,35.5513934 6.87080819,40.1289749 C11.4484393,44.7100457 17.4607115,47.0011627 23.4634853,46.9999996 C26.2329376,46.9999996 28.9998699,46.5097521 31.6307236,45.5327465 C32.0180243,45.3892972 32.254902,45.0244709 32.254902,44.6346379 C32.254902,44.525694 32.2357114,44.4120978 32.1950041,44.3033477 C32.0108521,43.8070909 31.4607222,43.5548916 30.9681641,43.7378863 C28.5478252,44.635801 26.003426,45.0855338 23.4634853,45.0841768 C17.9437713,45.0841768 12.4337495,42.9880733 8.22461619,38.7764812 C4.01567675,34.5672153 1.91576237,29.058183 1.91576237,23.5417843 C1.91576237,20.9947849 2.36528711,18.4489487 3.25968432,16.0345429 C3.44635629,15.5406123 3.19280806,14.9894958 2.69772994,14.805338" id="Fill-6"></path>
                <path d="M4.79336792,11.0531895 L5.53546703,11.7940263 C5.7828334,12.0425141 6.18964793,12.0425141 6.43932793,11.7940263 L8.72520142,9.50732156 L9.89069613,10.6714937 C10.1382553,10.9211382 10.4139637,10.8463412 10.5043884,10.5072488 L11.9577381,5.08119267 C12.050862,4.74229308 11.8484188,4.53891477 11.5058077,4.62932655 L6.08013577,6.08478269 C5.73983831,6.17519447 5.66618752,6.45471916 5.9137467,6.70070089 L7.0790486,7.86390915 L4.79336792,10.1506139 C4.54600154,10.3979451 4.54600154,10.8021956 4.79336792,11.0531895" id="Fill-9"></path>
                <path d="M34.3188668,12.7187859 C33.2170684,11.6373478 31.4853625,11.8020468 30.3664865,12.8956557 L26.3028075,16.9618943 L15.4387181,14.2990321 C15.2740274,14.2566305 15.1022702,14.3039397 14.9835123,14.4213295 L12.9153584,16.4933169 C12.8134818,16.5975543 12.7651934,16.7355559 12.7773637,16.8831764 C12.7893376,17.0260857 12.8717811,17.1568241 12.9928945,17.2392717 L20.8103043,22.4572252 L15.4750325,27.7925684 L11.9175958,27.9900501 C11.7964824,27.9959392 11.6849874,28.048156 11.6003847,28.132763 L10.2755963,29.4527103 C10.1593902,29.5653888 10.1156166,29.7349953 10.14722,29.8947867 C10.1835344,30.054578 10.2999367,30.1890462 10.4499054,30.2495078 L15.020023,31.9860119 L16.7538881,36.553807 C16.7756768,36.6191762 16.8143467,36.6761043 16.8628313,36.7208616 C16.9281972,36.7885864 17.0104444,36.8323622 17.1025063,36.8504221 C17.2648415,36.8879162 17.4318877,36.8382513 17.5457383,36.7232172 L18.8705267,35.3983623 C18.9527739,35.3198408 19.003614,35.2048067 19.0085214,35.0825094 L19.2071709,31.5246978 L24.5420501,26.1881768 L29.7611157,34.0144199 C29.8435592,34.1318097 29.9717392,34.2093497 30.1146413,34.2226984 C30.2598989,34.2372248 30.4051565,34.1887378 30.5070331,34.0846967 L32.575187,32.0162427 C32.6963004,31.898853 32.7424295,31.725713 32.7012077,31.561014 L30.0394607,20.6940237 L34.07664,16.6591937 C35.1931604,15.5402616 35.3723769,13.7880531 34.3188668,12.7187859 Z" id="Fill-11"></path>
            </g>
        </g>
    </g>
</svg>