<?xml version="1.0" encoding="UTF-8"?>
<svg width="52px" height="38px" viewBox="0 0 52 38" version="1.1" xmlns="http://www.w3.org/2000/svg" xmlns:xlink="http://www.w3.org/1999/xlink">
    <!-- Generator: Sketch 51.3 (57544) - http://www.bohemiancoding.com/sketch -->
    <title>CTA5@1.5x</title>
    <desc>Created with Sketch.</desc>
    <defs>
        <linearGradient x1="94.6234953%" y1="50%" x2="5.66269137%" y2="55.7266874%" id="linearGradient-1">
            <stop stop-color="#0A6C6E" offset="0%"></stop>
            <stop stop-color="#349D80" offset="100%"></stop>
        </linearGradient>
    </defs>
    <g id="Page-1" stroke="none" stroke-width="1" fill="none" fill-rule="evenodd">
        <g id="Home_2" transform="translate(-901.000000, -840.000000)" fill="url(#linearGradient-1)">
            <g id="CTA5" transform="translate(901.000000, 840.000000)">
                <path d="M48.2468596,10.5657701 L29.7546673,10.5657701 C29.3685188,10.5657701 29.0555064,10.2546181 29.0555064,9.87051656 C29.0555064,9.48666314 29.3685188,9.17551111 29.7546673,9.17551111 L48.2468596,9.17551111 C48.633008,9.17551111 48.9460204,9.48666314 48.9460204,9.87051656 C48.9460204,10.2546181 48.633008,10.5657701 48.2468596,10.5657701 Z M48.2468596,13.588957 L29.7546673,13.588957 C29.3685188,13.588957 29.0555064,13.277805 29.0555064,12.8939516 C29.0555064,12.50985 29.3685188,12.198698 29.7546673,12.198698 L48.2468596,12.198698 C48.633008,12.198698 48.9460204,12.50985 48.9460204,12.8939516 C48.9460204,13.277805 48.633008,13.588957 48.2468596,13.588957 Z M48.2468596,16.6121439 L29.7546673,16.6121439 C29.3685188,16.6121439 29.0555064,16.3009919 29.0555064,15.9171384 C29.0555064,15.533285 29.3685188,15.2218849 29.7546673,15.2218849 L48.2468596,15.2218849 C48.633008,15.2218849 48.9460204,15.533285 48.9460204,15.9171384 C48.9460204,16.3009919 48.633008,16.6121439 48.2468596,16.6121439 Z M48.2468596,19.6353308 L29.7546673,19.6353308 C29.3685188,19.6353308 29.0555064,19.3244269 29.0555064,18.9403253 C29.0555064,18.5564719 29.3685188,18.2453199 29.7546673,18.2453199 L48.2468596,18.2453199 C48.633008,18.2453199 48.9460204,18.5564719 48.9460204,18.9403253 C48.9460204,19.3244269 48.633008,19.6353308 48.2468596,19.6353308 Z M48.2468596,22.6587658 L29.7546673,22.6587658 C29.3685188,22.6587658 29.0555064,22.3473656 29.0555064,21.9635122 C29.0555064,21.5794106 29.3685188,21.2685067 29.7546673,21.2685067 L48.2468596,21.2685067 C48.633008,21.2685067 48.9460204,21.5794106 48.9460204,21.9635122 C48.9460204,22.3473656 48.633008,22.6587658 48.2468596,22.6587658 Z M48.2468596,25.6819526 L29.7546673,25.6819526 C29.3685188,25.6819526 29.0555064,25.3708006 29.0555064,24.9866991 C29.0555064,24.6028456 29.3685188,24.2914455 29.7546673,24.2914455 L48.2468596,24.2914455 C48.633008,24.2914455 48.9460204,24.6028456 48.9460204,24.9866991 C48.9460204,25.3708006 48.633008,25.6819526 48.2468596,25.6819526 Z M48.2468596,28.7051395 L29.7546673,28.7051395 C29.3685188,28.7051395 29.0555064,28.3937393 29.0555064,28.0098859 C29.0555064,27.6260325 29.3685188,27.3148805 29.7546673,27.3148805 L48.2468596,27.3148805 C48.633008,27.3148805 48.9460204,27.6260325 48.9460204,28.0098859 C48.9460204,28.3937393 48.633008,28.7051395 48.2468596,28.7051395 Z M48.2468596,31.7280783 L29.7546673,31.7280783 C29.3685188,31.7280783 29.0555064,31.4169262 29.0555064,31.0330728 C29.0555064,30.6492194 29.3685188,30.3380673 29.7546673,30.3380673 L48.2468596,30.3380673 C48.633008,30.3380673 48.9460204,30.6492194 48.9460204,31.0330728 C48.9460204,31.4169262 48.633008,31.7280783 48.2468596,31.7280783 Z M36.859599,0 C34.1266065,0 31.3936141,1.03618092 29.3086122,3.10903903 C27.2233606,5.18189713 26.1807349,7.8986464 26.1807349,10.6151475 L26.1807349,38 L42.8065846,38 C44.9941767,38 47.1820184,37.1702613 48.8509186,35.5110319 C50.5200683,33.8518025 51.3545184,31.676964 51.3545184,29.5026217 L51.3545184,0 L36.859599,0 Z" id="Fill-1"></path>
                <path d="M21.5998511,10.5657701 L3.10790841,10.5657701 C2.72151035,10.5657701 2.40849797,10.2546181 2.40849797,9.87051656 C2.40849797,9.48666314 2.72151035,9.17551111 3.10790841,9.17551111 L21.5998511,9.17551111 C21.9859995,9.17551111 22.2990119,9.48666314 22.2990119,9.87051656 C22.2990119,10.2546181 21.9859995,10.5657701 21.5998511,10.5657701 M21.5998511,13.588957 L3.10790841,13.588957 C2.72151035,13.588957 2.40849797,13.277805 2.40849797,12.8939516 C2.40849797,12.50985 2.72151035,12.198698 3.10790841,12.198698 L21.5998511,12.198698 C21.9859995,12.198698 22.2990119,12.50985 22.2990119,12.8939516 C22.2990119,13.277805 21.9859995,13.588957 21.5998511,13.588957 M21.5998511,16.6121439 L3.10790841,16.6121439 C2.72151035,16.6121439 2.40849797,16.3009919 2.40849797,15.9171384 C2.40849797,15.533285 2.72151035,15.2218849 3.10790841,15.2218849 L21.5998511,15.2218849 C21.9859995,15.2218849 22.2990119,15.533285 22.2990119,15.9171384 C22.2990119,16.3009919 21.9859995,16.6121439 21.5998511,16.6121439 M21.5998511,19.6353308 L3.10790841,19.6353308 C2.72151035,19.6353308 2.40849797,19.3244269 2.40849797,18.9403253 C2.40849797,18.5564719 2.72151035,18.2453199 3.10790841,18.2453199 L21.5998511,18.2453199 C21.9859995,18.2453199 22.2990119,18.5564719 22.2990119,18.9403253 C22.2990119,19.3244269 21.9859995,19.6353308 21.5998511,19.6353308 M21.5998511,22.6587658 L3.10790841,22.6587658 C2.72151035,22.6587658 2.40849797,22.3473656 2.40849797,21.9635122 C2.40849797,21.5794106 2.72151035,21.2685067 3.10790841,21.2685067 L21.5998511,21.2685067 C21.9859995,21.2685067 22.2990119,21.5794106 22.2990119,21.9635122 C22.2990119,22.3473656 21.9859995,22.6587658 21.5998511,22.6587658 M21.5998511,25.6819526 L3.10790841,25.6819526 C2.72151035,25.6819526 2.40849797,25.3708006 2.40849797,24.9866991 C2.40849797,24.6028456 2.72151035,24.2914455 3.10790841,24.2914455 L21.5998511,24.2914455 C21.9859995,24.2914455 22.2990119,24.6028456 22.2990119,24.9866991 C22.2990119,25.3708006 21.9859995,25.6819526 21.5998511,25.6819526 M21.5998511,28.7051395 L3.10790841,28.7051395 C2.72151035,28.7051395 2.40849797,28.3937393 2.40849797,28.0098859 C2.40849797,27.6260325 2.72151035,27.3148805 3.10790841,27.3148805 L21.5998511,27.3148805 C21.9859995,27.3148805 22.2990119,27.6260325 22.2990119,28.0098859 C22.2990119,28.3937393 21.9859995,28.7051395 21.5998511,28.7051395 M21.5998511,31.7280783 L3.10790841,31.7280783 C2.72151035,31.7280783 2.40849797,31.4169262 2.40849797,31.0330728 C2.40849797,30.6492194 2.72151035,30.3380673 3.10790841,30.3380673 L21.5998511,30.3380673 C21.9859995,30.3380673 22.2990119,30.6492194 22.2990119,31.0330728 C22.2990119,31.4169262 21.9859995,31.7280783 21.5998511,31.7280783 M22.0461558,3.10903903 C19.9609043,1.03618092 17.2279118,0 14.495169,0 L0,0 L0,29.5026217 C0,31.676964 0.834699679,33.8518025 2.50384943,35.5110319 C4.17274956,37.1702613 6.36034167,38 8.54793377,38 L25.1737835,38 L25.1737835,10.6151475 C25.1737835,7.8986464 24.1314074,5.18189713 22.0461558,3.10903903" id="Fill-4"></path>
            </g>
        </g>
    </g>
</svg>