<?xml version="1.0" encoding="UTF-8"?>
<svg width="37px" height="46px" viewBox="0 0 37 46" version="1.1" xmlns="http://www.w3.org/2000/svg" xmlns:xlink="http://www.w3.org/1999/xlink">
    <!-- Generator: Sketch 51.3 (57544) - http://www.bohemiancoding.com/sketch -->
    <title>CTA1@1.5x</title>
    <desc>Created with Sketch.</desc>
    <defs>
        <linearGradient x1="94.6234953%" y1="50%" x2="5.66269137%" y2="55.7266874%" id="linearGradient-1">
            <stop stop-color="#0A6C6E" offset="0%"></stop>
            <stop stop-color="#349D80" offset="100%"></stop>
        </linearGradient>
    </defs>
    <g id="Page-1" stroke="none" stroke-width="1" fill="none" fill-rule="evenodd">
        <g id="Home_2" transform="translate(-1224.000000, -715.000000)" fill="url(#linearGradient-1)">
            <g id="CTA1" transform="translate(1224.000000, 715.000000)">
                <path d="M9.96159657,11.2653061 C7.07985114,11.2653061 4.74358974,8.95361769 4.74358974,6.10204082 C4.74358974,3.25046395 7.07985114,0.93877551 9.96159657,0.93877551 C12.843342,0.93877551 15.1794872,3.25046395 15.1794872,6.10204082 C15.1794872,8.95361769 12.843342,11.2653061 9.96159657,11.2653061 Z M27.9871795,10.3265306 C25.1054172,10.3265306 22.7692308,8.01480213 22.7692308,5.16332104 C22.7692308,2.31161701 25.1054172,0 27.9871795,0 C30.8689417,0 33.2051282,2.31161701 33.2051282,5.16332104 C33.2051282,8.01480213 30.8689417,10.3265306 27.9871795,10.3265306 Z M33.9757911,11.2653061 C35.646065,11.2653061 37,12.5870236 37,14.2172977 L37,27.305004 C37,28.9353922 35.646065,30.2569956 33.9757911,30.2569956 L33.6851614,30.2569956 C33.4702566,30.2569956 33.2961358,30.4269584 33.2961358,30.6367313 L33.2961358,43.0480084 C33.2961358,44.6783966 31.9422008,46 30.271927,46 L26.3606371,46 C24.6902463,46 23.3363113,44.6783966 23.3363113,43.0480084 L23.3363113,38.3912557 C24.3089335,37.8893521 24.9732802,36.8914766 24.9732802,35.7450831 L24.9732802,27.9920416 C24.9732802,26.6861797 24.111324,25.5733226 22.9139808,25.1663244 C23.7908951,24.1851029 24.3226061,22.9028533 24.3226061,21.5012875 C24.3226061,18.8670922 22.4414007,16.6586024 19.9230769,16.0749113 L19.9230769,14.2172977 C19.9230769,12.5870236 21.2771288,11.2653061 22.9472858,11.2653061 L33.9757911,11.2653061 Z M12.1262455,35.0544153 C12.1262455,36.1998983 12.7799823,37.1932217 13.7283998,37.6706269 L13.7283998,42.2688104 C13.7283998,43.8109995 12.4965976,45.0612245 10.9771338,45.0612245 L7.41870399,45.0612245 C5.89924012,45.0612245 4.667438,43.8109995 4.667438,42.2688104 L4.667438,36.5005445 L2.63921967,36.5005445 C2.13452297,36.5005445 1.74848812,36.0441768 1.82492741,35.5379425 L2.63154284,30.1904254 C2.66159215,29.9914046 2.5241769,29.810861 2.32819841,29.7799171 C0.830119987,29.5430511 -0.197478464,28.1201855 0.0320587356,26.5981433 L1.56753429,16.4202519 C1.62149143,14.1688005 3.36917648,12.348561 5.56793009,12.2169935 C5.6170618,12.2136542 5.66619351,12.2110941 5.71576389,12.2094245 C5.75107731,12.208534 5.7854037,12.2040816 5.82093646,12.2040816 L13.1359679,12.2040816 C15.18612,12.2040816 16.8723904,13.7845611 17.0769231,15.8106113 C14.6075064,16.2984796 12.7368824,18.50819 12.7368824,21.1552343 C12.7368824,22.5228906 13.2358763,23.7741174 14.0589421,24.7315992 C12.9350543,25.1287505 12.1262455,26.2146831 12.1262455,27.4889509 L12.1262455,35.0544153 Z" id="Combined-Shape"></path>
                <path d="M22.2539587,25.8632719 C23.0612055,25.8632719 23.7179487,26.5010454 23.7179487,27.2849754 L23.7179487,34.9382582 C23.7179487,35.7221882 23.0612055,36.3599618 22.2539587,36.3599618 L21.6602925,36.3599618 L21.6602925,43.6395209 C21.6602925,44.4234509 21.0034334,45.0612245 20.1963025,45.0612245 L17.5911284,45.0612245 C16.7838816,45.0612245 16.1270224,44.4234509 16.1270224,43.6395209 L16.1270224,36.3599618 L15.6948752,36.3599618 C14.8876284,36.3599618 14.2307692,35.7221882 14.2307692,34.9382582 L14.2307692,27.2849754 C14.2307692,26.5010454 14.8876284,25.8632719 15.6948752,25.8632719 L22.2539587,25.8632719 M18.9744169,16.8979592 C21.2376532,16.8979592 23.0724527,18.6797616 23.0724527,20.8776257 C23.0724527,23.0756024 21.2376532,24.8572922 18.9744169,24.8572922 C16.7111807,24.8572922 14.8763812,23.0756024 14.8763812,20.8776257 C14.8763812,18.6797616 16.7111807,16.8979592 18.9744169,16.8979592" id="Fill-10"></path>
            </g>
        </g>
    </g>
</svg>