<?xml version="1.0" encoding="UTF-8"?>
<svg width="47px" height="42px" viewBox="0 0 47 42" version="1.1" xmlns="http://www.w3.org/2000/svg" xmlns:xlink="http://www.w3.org/1999/xlink">
    <!-- Generator: Sketch 52.4 (67378) - http://www.bohemiancoding.com/sketch -->
    <title>Group</title>
    <desc>Created with Sketch.</desc>
    <defs>
        <linearGradient x1="94.6234953%" y1="50%" x2="5.66269137%" y2="55.7266874%" id="linearGradient-1">
            <stop stop-color="#0A6C6E" offset="0%"></stop>
            <stop stop-color="#349D80" offset="100%"></stop>
        </linearGradient>
        <polygon id="path-2" points="0 0.952072471 10.198 0.952072471 10.198 12.9996485 0 12.9996485"></polygon>
        <polygon id="path-4" points="1 0.5 1.5 0.5 1.5 1 1 1"></polygon>
    </defs>
    <g id="Page-1" stroke="none" stroke-width="1" fill="none" fill-rule="evenodd">
        <g id="Group">
            <g id="health-(1)" fill="url(#linearGradient-1)" fill-rule="nonzero">
                <path d="M23.5035262,34.6938134 C17.8445049,34.6938134 13.2655034,30.0014736 13.2655034,24.2116069 C13.2655034,18.4238033 17.8445049,13.7273375 23.5035262,13.7273375 C29.1554951,13.7273375 33.7385265,18.4238033 33.7385265,24.2116069 C33.7385265,30.0014736 29.1554951,34.6938134 23.5035262,34.6938134 Z M17.4223704,4.73669475 C17.4223704,3.70209004 18.24246,2.85831471 19.2529635,2.85831471 L27.746029,2.85831471 C28.7555251,2.85831471 29.5756147,3.70209004 29.5756147,4.73669475 L29.5756147,6.25404622 L17.4223704,6.25404622 L17.4223704,4.73669475 Z M40.792909,6.25404622 L32.3713747,6.25404622 L32.3713747,4.73669475 C32.3713747,2.12491097 30.2919337,0 27.746029,0 L19.2529635,0 C16.7060513,0 14.6296328,2.12491097 14.6296328,4.73669475 L14.6296328,6.25404622 L6.20608347,6.25404622 C2.79273756,6.25404622 0,9.11132942 0,12.6060859 L0,35.6458973 C0,39.1427168 2.79273756,42 6.20608347,42 L40.792909,42 C44.2072624,42 47,39.1427168 47,35.6458973 L47,12.6060859 C47,9.11132942 44.2072624,6.25404622 40.792909,6.25404622 Z" id="Fill-1"></path>
            </g>
            <g id="Group-7" transform="translate(17.000000, 17.000000)">
                <g id="Group-3" transform="translate(1.000000, 0.047500)">
                    <mask id="mask-3" fill="white">
                        <use xlink:href="#path-2"></use>
                    </mask>
                    <g id="Clip-2"></g>
                    <path d="M8.6545,12.0692 C8.3455,12.1092 8.0375,12.1532 7.7295,12.1952 C6.9085,12.2252 6.1055,12.1352 5.3265,11.8612 C5.0465,11.7642 4.7875,11.6222 4.5165,11.5042 C3.9195,11.1342 3.4045,10.6742 2.9735,10.1182 C2.7985,9.8482 2.6055,9.5862 2.4885,9.2812 C2.4875,9.2572 2.4925,9.2302 2.4835,9.2102 C2.3275,8.8032 2.1935,8.3932 2.1315,7.9582 C2.0475,7.3722 2.0635,6.7882 2.1615,6.2092 C2.2365,5.7692 2.3685,5.3432 2.5515,4.9342 C2.9625,4.0082 3.5765,3.2482 4.4045,2.6652 C4.9035,2.3142 5.4615,2.0822 6.0495,1.9232 C6.4605,1.8132 6.8805,1.7332 7.3085,1.7232 C7.6065,1.7152 7.9025,1.7352 8.1995,1.7752 C8.7295,1.8462 9.2425,1.9692 9.7405,2.1672 C9.8875,2.2262 10.0295,2.3152 10.1985,2.3262 C10.1965,2.2732 10.1645,2.2552 10.1255,2.2462 C9.9675,2.1102 9.7995,1.9892 9.6115,1.8982 C9.5935,1.8822 9.5775,1.8632 9.5585,1.8512 C8.7835,1.3812 7.9405,1.0992 7.0425,0.9982 C6.3455,0.9192 5.6465,0.9382 4.9555,1.0822 C3.6565,1.3512 2.5115,1.9192 1.6165,2.9092 C0.1725,4.5052 -0.2995,6.3722 0.1815,8.4712 C0.3115,9.0382 0.5395,9.5732 0.8655,10.0612 C1.0725,10.4072 1.3195,10.7222 1.5935,11.0172 C1.9215,11.3702 2.2845,11.6812 2.6935,11.9362 C2.7465,11.9762 2.7965,12.0222 2.8545,12.0572 C3.7575,12.5882 4.7315,12.9012 5.7755,12.9792 C6.7745,13.0552 7.7475,12.9212 8.6795,12.5462 C9.1385,12.3612 9.5975,12.1702 9.9895,11.8552 C10.0535,11.8192 10.1015,11.7682 10.1495,11.6862 C10.0735,11.7082 10.0185,11.7232 9.9635,11.7392 C9.5335,11.8742 9.1045,12.0122 8.6545,12.0692 Z" id="Fill-1" fill="#228879" mask="url(#mask-3)"></path>
                </g>
                <g id="Group-6" transform="translate(0.000000, 12.047500)">
                    <mask id="mask-5" fill="white">
                        <use xlink:href="#path-4"></use>
                    </mask>
                    <g id="Clip-5"></g>
                    <path d="" id="Fill-4" fill="#228879" mask="url(#mask-5)"></path>
                </g>
            </g>
        </g>
    </g>
</svg>