<?xml version="1.0" encoding="UTF-8"?>
<svg width="65px" height="40px" viewBox="0 0 65 40" version="1.1" xmlns="http://www.w3.org/2000/svg" xmlns:xlink="http://www.w3.org/1999/xlink">
    <!-- Generator: Sketch 51.3 (57544) - http://www.bohemiancoding.com/sketch -->
    <title>CTA13@1.5x</title>
    <desc>Created with Sketch.</desc>
    <defs>
        <linearGradient x1="94.6234953%" y1="50%" x2="5.66269137%" y2="55.7266874%" id="linearGradient-1">
            <stop stop-color="#0A6C6E" offset="0%"></stop>
            <stop stop-color="#349D80" offset="100%"></stop>
        </linearGradient>
    </defs>
    <g id="Page-1" stroke="none" stroke-width="1" fill="none" fill-rule="evenodd">
        <g id="Home_2" transform="translate(-1210.000000, -1216.000000)" fill="url(#linearGradient-1)">
            <g id="CTA13" transform="translate(1210.000000, 1216.000000)">
                <polygon id="Fill-1" points="25.6395349 40 41.4186047 40 41.4186047 37.9661017 25.6395349 37.9661017"></polygon>
                <polygon id="Fill-2" points="27.6976744 37.2881356 40.0465116 37.2881356 40.0465116 35.2542373 27.6976744 35.2542373"></polygon>
                <polygon id="Fill-3" points="29.0697674 33.8983051 37.3023256 33.8983051 37.3023256 32.5423729 29.0697674 32.5423729"></polygon>
                <path d="M24.0055836,0 L0.338586957,10.1339972 L1.55848537,12.1979079 L4.60197593,12.1979079 L4.60197593,30.5818513 L0.605987087,30.5818513 L0.605987087,34 L29.7355864,34 L29.7355864,19.4738445 L37.7620943,19.4738445 L37.7620943,34 L64.661413,34 L64.661413,30.5818513 L61.0899615,30.5818513 L61.0899615,20.1835172 L64.2021788,20.1835172 L61.1995572,14.6700433 L44.9105021,14.6700433 L44.9105021,20.0270962 L58.6251429,20.0270962 L58.6251429,21.0037102 L44.9105021,21.0037102 L44.9105021,21.9422362 L58.6251429,21.9422362 L58.6251429,22.9186873 L44.9105021,22.9186873 L44.9105021,23.8562367 L58.6251429,23.8562367 L58.6251429,24.8328506 L44.9105021,24.8328506 L44.9105021,25.7704 L58.6251429,25.7704 L58.6251429,26.7470139 L44.9105021,26.7470139 L44.9105021,27.6855399 L58.6251429,27.6855399 L58.6251429,28.661991 L44.9105021,28.661991 L44.9105021,29.5993776 L58.6251429,29.5993776 L58.6251429,30.5759916 L44.9105021,30.5759916 L44.9105021,30.5818513 L43.4091913,30.5818513 L43.4091913,12.1979079 L46.4528487,12.1979079 L47.6725803,10.136927 L24.0055836,0 Z M21.1208984,19.429083 L25.5734525,19.429083 L25.5734525,14.2655624 L21.1208984,14.2655624 L21.1208984,19.429083 Z M15.6497883,19.429083 L20.1000071,19.429083 L20.1000071,14.2655624 L15.6497883,14.2655624 L15.6497883,19.429083 Z M10.1558249,19.429083 L14.6082122,19.429083 L14.6082122,14.2655624 L10.1558249,14.2655624 L10.1558249,19.429083 Z M21.1208984,27.7836896 L25.5734525,27.7836896 L25.5734525,22.6221222 L21.1208984,22.6221222 L21.1208984,27.7836896 Z M15.6497883,27.7836896 L20.1000071,27.7836896 L20.1000071,22.6221222 L15.6497883,22.6221222 L15.6497883,27.7836896 Z M10.1558249,27.7836896 L14.6082122,27.7836896 L14.6082122,22.6221222 L10.1558249,22.6221222 L10.1558249,27.7836896 Z" id="Fill-4"></path>
            </g>
        </g>
    </g>
</svg>