<?xml version="1.0" encoding="UTF-8"?>
<svg width="49px" height="44px" viewBox="0 0 49 44" version="1.1" xmlns="http://www.w3.org/2000/svg" xmlns:xlink="http://www.w3.org/1999/xlink">
    <!-- Generator: Sketch 51.3 (57544) - http://www.bohemiancoding.com/sketch -->
    <title>CTA4@1.5x</title>
    <desc>Created with Sketch.</desc>
    <defs>
        <linearGradient x1="-14.8700279%" y1="398.053533%" x2="134.936579%" y2="-719.017075%" id="linearGradient-1">
            <stop stop-color="#359E81" offset="0%"></stop>
            <stop stop-color="#0F7270" offset="100%"></stop>
        </linearGradient>
        <radialGradient cx="94.6234953%" cy="50%" fx="94.6234953%" fy="50%" r="93.1174728%" gradientTransform="translate(0.946235,0.500000),scale(1.000000,0.188346),rotate(161.130530),translate(-0.946235,-0.500000)" id="radialGradient-2">
            <stop stop-color="#278D7B" offset="0%"></stop>
            <stop stop-color="#2A917C" offset="100%"></stop>
        </radialGradient>
        <radialGradient cx="94.6234953%" cy="50%" fx="94.6234953%" fy="50%" r="88.2980733%" gradientTransform="translate(0.946235,0.500000),scale(1.000000,0.993051),rotate(176.291071),translate(-0.946235,-0.500000)" id="radialGradient-3">
            <stop stop-color="#278D7B" offset="0%"></stop>
            <stop stop-color="#2A917C" offset="100%"></stop>
        </radialGradient>
        <radialGradient cx="94.6234953%" cy="50%" fx="94.6234953%" fy="50%" r="88.2980518%" gradientTransform="translate(0.946235,0.500000),scale(1.000000,0.993109),rotate(176.291286),translate(-0.946235,-0.500000)" id="radialGradient-4">
            <stop stop-color="#278D7B" offset="0%"></stop>
            <stop stop-color="#2A917C" offset="100%"></stop>
        </radialGradient>
    </defs>
    <g id="Page-1" stroke="none" stroke-width="1" fill="none" fill-rule="evenodd">
        <g id="Home_2" transform="translate(-1218.000000, -834.000000)">
            <g id="CTA4" transform="translate(1218.000000, 834.000000)">
                <polygon id="Fill-1" fill="url(#linearGradient-1)" points="11.3076923 25.2765957 36.75 25.2765957 36.75 22.4680851 11.3076923 22.4680851"></polygon>
                <path d="M7.64852857,44.0000282 L20.7243857,44.0000282 C20.7503857,42.1310154 20.8901,40.247759 21.1708143,39.4166949 C21.8423857,37.4254128 23.3768143,36.975259 24.4465286,36.975259 C25.5162429,36.975259 27.0502429,37.4254128 27.7223857,39.4166949 C28.0026714,40.2474769 28.1426714,42.1307333 28.1685286,44.0000282 L41.2449571,44.0000282 L41.2449571,26.5639 L7.64852857,26.5639 L7.64852857,44.0000282 Z" id="Fill-2" fill="url(#linearGradient-1)"></path>
                <polygon id="Fill-5" fill="url(#radialGradient-2)" points="42.6107143 44 46.9655714 44 46.9655714 20.8784231 42.6107143 20.8784231"></polygon>
                <path d="M41.8091,19.5494962 L47.7929571,19.5301756 C47.9886714,19.3789962 49.1795286,18.3486628 48.8289571,15.9390987 C48.5192429,13.8096115 47.1733857,13.0133808 46.0919571,12.3735474 C45.5175286,12.0328295 45.0016714,11.7273679 44.7865286,11.2818679 C44.5725286,11.7259577 44.0642429,12.0271885 43.4866714,12.3698808 C42.4016714,13.0128167 41.0565286,13.8100346 40.7471,15.9390987 C40.3736714,18.5066115 41.7501,19.5080346 41.8091,19.5494962" id="Fill-7" fill="url(#radialGradient-3)"></path>
                <polygon id="Fill-8" fill="url(#radialGradient-2)" points="1.92785714 44 6.28271429 44 6.28271429 20.8784231 1.92785714 20.8784231"></polygon>
                <path d="M1.1262,19.5494962 L7.10991429,19.5301756 C7.30577143,19.3789962 8.49648571,18.3486628 8.14605714,15.9390987 C7.83691429,13.8100346 6.49077143,13.0133808 5.40934286,12.3735474 C4.83448571,12.0331115 4.31862857,11.72765 4.10362857,11.282291 C3.88948571,11.7263808 3.38105714,12.0278936 2.80277143,12.3708679 C1.71877143,13.0128167 0.373628571,13.8096115 0.0640571429,15.9390987 C-0.309228571,18.5066115 1.0672,19.5080346 1.1262,19.5494962" id="Fill-9" fill="url(#radialGradient-4)"></path>
                <path d="M24.2054429,5.57102051 L24.1565857,5.90609744 C23.8168714,6.87593077 22.2880143,7.49446923 20.5177286,8.21073846 C17.5270143,9.42087949 13.4328714,11.0775077 12.5135857,15.3952897 C11.9011571,18.2700974 12.8817286,20.187059 13.9230143,21.3520718 L34.9704429,21.3520718 C36.0115857,20.1872 36.9923,18.2700974 36.3798714,15.3952897 C35.4601571,11.0772256 31.3631571,9.42116154 28.3714429,8.21214872 C26.3390143,7.39095641 24.7277286,6.73702051 24.6861571,5.63194359 C24.9125857,5.64139231 25.1390143,5.61685385 25.3637286,5.57172564 C25.6765857,5.50896923 25.9840143,5.40136667 26.2691571,5.22748205 C26.2868714,5.21662308 26.3044429,5.20562308 26.3220143,5.19434103 C26.9341571,4.80243077 27.3624429,4.19982821 27.5281571,3.49752051 C27.5365857,3.46184103 27.5167286,3.42559744 27.4820143,3.41304615 C27.4470143,3.40049487 27.4083,3.41544359 27.3915857,3.44802051 C27.2167286,3.78478974 26.9541571,4.0722 26.6318714,4.27852051 C25.6203,4.92625128 24.2450143,4.63475128 23.5904429,3.63882821 C22.9305857,2.63472564 23.2213,1.28764872 24.2384429,0.636251282 C24.5614429,0.429789744 24.9340143,0.3102 25.3161571,0.290174359 C25.3288714,0.289469231 25.3405857,0.285520513 25.3508714,0.27945641 C25.3513,0.279174359 25.3520143,0.278610256 25.3520143,0.278610256 C25.3865857,0.257738462 25.3973,0.212892308 25.3758714,0.178905128 C25.3624429,0.157328205 25.3391571,0.1452 25.3153,0.144635897 C24.6034429,0.0116487179 23.8744429,0.152251282 23.2650143,0.542187179 C22.6355857,0.945238462 22.2028714,1.56617436 22.0465857,2.29048205 C21.8903,3.01493077 22.0290143,3.75587949 22.4373,4.37723846 C22.7224429,4.81103333 23.1184429,5.13243077 23.5625857,5.34537949 C23.7685857,5.44409744 23.9823,5.5236359 24.2054429,5.57102051" id="Fill-10" fill="url(#linearGradient-1)"></path>
            </g>
        </g>
    </g>
</svg>