<?xml version="1.0" encoding="UTF-8"?>
<svg width="49px" height="48px" viewBox="0 0 49 48" version="1.1" xmlns="http://www.w3.org/2000/svg" xmlns:xlink="http://www.w3.org/1999/xlink">
    <!-- Generator: Sketch 51.3 (57544) - http://www.bohemiancoding.com/sketch -->
    <title>CTA16@1.5x</title>
    <desc>Created with Sketch.</desc>
    <defs>
        <linearGradient x1="94.6234953%" y1="50%" x2="5.66269137%" y2="55.7266874%" id="linearGradient-1">
            <stop stop-color="#0A6C6E" offset="0%"></stop>
            <stop stop-color="#349D80" offset="100%"></stop>
        </linearGradient>
    </defs>
    <g id="Page-1" stroke="none" stroke-width="1" fill="none" fill-rule="evenodd">
        <g id="Home_2" transform="translate(-899.000000, -1333.000000)" fill="url(#linearGradient-1)">
            <g id="CTA16" transform="translate(899.000000, 1333.000000)">
                <path d="M36.7708564,43.6363636 L11.3541436,43.6363636 C10.3992281,43.6363636 9.625,44.4242497 9.625,45.396858 L9.625,46.2402917 C9.625,47.2118519 10.3992281,48 11.3541436,48 L36.7708564,48 C37.7257719,48 38.5,47.2118519 38.5,46.2402917 L38.5,45.396858 C38.5,44.4242497 37.7257719,43.6363636 36.7708564,43.6363636" id="Fill-1"></path>
                <path d="M35.0110443,37.5272727 L14.8639557,37.5272727 C13.9036214,37.5272727 13.125,38.3151588 13.125,39.2877671 L13.125,40.1309388 C13.125,41.102761 13.9036214,41.8909091 14.8639557,41.8909091 L35.0110443,41.8909091 C35.9713786,41.8909091 36.75,41.102761 36.75,40.1309388 L36.75,39.2877671 C36.75,38.3151588 35.9713786,37.5272727 35.0110443,37.5272727" id="Fill-3"></path>
                <path d="M27.7811245,3.03598545 L27.7811245,3.45896727 L21.9011245,3.45896727 L21.9011245,3.03598545 C21.9011245,1.45867636 23.0787223,0.181294545 24.5306136,0.181294545 L25.1598908,0.181294545 C26.6115158,0.181294545 27.7811245,1.45867636 27.7811245,3.03598545" id="Fill-5"></path>
                <polygon id="Fill-8" points="21.875 36.6545455 27.125 36.6545455 27.125 8.72727273 21.875 8.72727273"></polygon>
                <path d="M32.2141791,25.7267483 L39.7568404,8.43911048 L47.2995018,25.7267483 L32.2141791,25.7267483 Z M24.4997425,6.83234693 C23.9929152,6.83234693 23.5715892,6.4207243 23.5715892,5.90863089 C23.5715892,5.40397027 23.9929152,4.98491485 24.4997425,4.98491485 C25.0145533,4.98491485 25.4281532,5.40397027 25.4281532,5.90863089 C25.4281532,6.4207243 25.0145533,6.83234693 24.4997425,6.83234693 Z M16.7855634,25.7267483 L1.70049825,25.7267483 L9.24290204,8.43911048 L16.7855634,25.7267483 Z M48.9765644,25.6726684 L41.098336,7.60868874 C41.8006317,7.58510886 42.3700398,7.01867921 42.3700398,6.30436273 L42.3700398,5.67539515 C42.3700398,4.95390219 41.7771961,4.36363636 41.0514648,4.36363636 L8.38505566,4.36363636 C7.65185582,4.36363636 7.06673815,4.95390219 7.06673815,5.67539515 L7.06673815,6.30436273 C7.06673815,6.87899408 7.42548327,7.35238573 7.94055165,7.53077262 L0.023178077,25.6726684 L0,25.7267483 C0.912443632,29.9731765 4.70334689,33.1636364 9.24290204,33.1636364 C13.7827147,33.1636364 17.5733605,29.9731765 18.4860616,25.7267483 L18.462626,25.6726684 L10.5846552,7.61612152 L38.4228133,7.61612152 L30.5451,25.6726684 L30.5216644,25.7267483 C31.434108,29.9731765 35.2172853,33.1636364 39.7568404,33.1636364 C44.2963956,33.1636364 48.0872988,29.9731765 49,25.7267483 L48.9765644,25.6726684 Z" id="Fill-10"></path>
            </g>
        </g>
    </g>
</svg>