<?xml version="1.0" encoding="utf-8"?>
<!-- Generator: Adobe Illustrator 22.0.1, SVG Export Plug-In . SVG Version: 6.00 Build 0)  -->
<svg version="1.1" id="Layer_1" xmlns="http://www.w3.org/2000/svg" xmlns:xlink="http://www.w3.org/1999/xlink" x="0px" y="0px"
	 viewBox="0 0 755 257.6" style="enable-background:new 0 0 755 257.6;" xml:space="preserve">
<style type="text/css">
	.st0{fill:#FFFFFF;}
</style>
<g id="lYg6nJ_3_">
	<g id="XMLID_498_">
		<path id="XMLID_508_" class="st0" d="M292.1,74.9c0.3-2.1,0.6-4.2,1-6.2c2.7-11.4,11.2-18.9,22.8-20.5c7.1-1,14-0.7,20.7,2.1
			c8.4,3.5,13.2,10.1,15.2,18.8c0.1,0.3,0.1,0.5,0.1,0.9c-0.3,0-0.5,0.1-0.7,0.1c-5,0-10,0-15,0c-0.6,0-1-0.1-1.3-0.7
			c-2.6-6-8-8.9-14.6-8c-5.6,0.8-9.2,3.9-10.7,9.3c-1.5,5.2-1.4,10.4,0.5,15.4c1.5,4.2,4.6,6.7,9,7.4c4.3,0.7,8.5,0.3,12.2-2.2
			c1.5-1,2.6-2.2,3.5-4c-4.3,0-8.5,0-12.7,0c0-3.7,0-7.2,0-10.9c10,0,20,0,30.1,0c0,10,0,20,0,30.1c-4.2,0-8.4,0-12.7,0
			c0-2.3,0-4.6,0-7.1c-0.4,0.2-0.6,0.3-0.7,0.4c-4.4,5.3-10.1,7.4-16.8,7.5c-6.4,0.1-12.6-1.1-18.1-4.6c-6.4-4.1-9.7-10.3-11.2-17.6
			c-0.3-1.6-0.5-3.2-0.7-4.8C292.1,78.6,292.1,76.7,292.1,74.9z"/>
		<path id="XMLID_505_" class="st0" d="M424.2,77.6c-0.1,5.3-1,10.4-3.4,15.2c-3.4,6.6-8.8,10.9-16,13c-7.8,2.3-15.6,2.3-23.3-0.2
			c-10.6-3.5-16.5-11-18.3-21.9c-0.9-5.5-0.7-10.9,0.9-16.3c2.7-9.1,8.5-15.2,17.6-18.1c7.9-2.5,16-2.5,23.9,0.1
			c10.7,3.5,16.4,11.3,18.2,22.2C424,73.7,424,75.6,424.2,77.6z M379.4,77.6c0,0.6,0,1.1,0,1.7c0.2,3.1,0.9,6.1,2.6,8.8
			c3.1,4.6,7.5,6.1,12.8,5.7c5.1-0.4,8.9-2.9,11-7.5c2.1-4.7,2.2-9.5,1-14.5c-1.4-5.9-5.4-9.5-11.3-10.3c-6.1-0.9-11.7,1.8-14.3,7.1
			C379.8,71.3,379.3,74.4,379.4,77.6z"/>
		<path id="XMLID_504_" class="st0" d="M509.8,86.5c5.6,0,11,0,16.5,0c0,0.8,0,1.6,0,2.3c0.1,2.9,1.2,4.5,4,5.4c3,1,6.2,1.2,9.3,0.8
			c1.6-0.2,3.3-0.5,4.8-1.1c1.1-0.4,2.1-1.3,2.9-2.2c1.5-2,0.9-4.6-1.3-5.5c-2.5-1-5.1-1.7-7.7-2.2c-5.5-1-11.1-1.6-16.3-3.7
			c-2.1-0.8-4.1-2-5.8-3.4c-6.8-5.4-7-18.2,1-24.1c3.3-2.5,7.1-3.8,11.2-4.5c7.1-1.1,14.3-1.1,21.2,1.1c2.1,0.7,4.2,1.7,6.1,2.9
			c4.7,3.1,6.9,8.4,6.3,14.6c-5.5,0-10.9,0-16.4,0c0-0.4-0.1-0.8-0.1-1.1c0.1-2.5-1.2-4.1-3.4-4.9c-3.6-1.3-7.4-1.3-11,0
			c-1,0.4-2,1.2-2.7,2.1c-1.4,1.7-0.9,4.1,1.1,4.9c2.3,1,4.8,1.7,7.2,2.2c5.2,0.9,10.5,1.5,15.6,3.2c3.5,1.2,6.7,2.8,9.1,5.8
			c6,7.6,3.7,19.2-4.9,24.3c-3.5,2.1-7.4,3.2-11.5,3.6c-7.1,0.8-14.2,0.9-21.2-1.1c-2.5-0.7-4.9-1.8-7.1-3.2
			c-4.5-2.8-6.6-7.1-6.9-12.4C509.7,89.1,509.8,87.9,509.8,86.5z"/>
		<path id="XMLID_501_" class="st0" d="M634.6,106.6c-5.6,0-11,0-16.5,0c-1-2.6-2.1-5.1-3.1-7.7c-0.3-0.8-0.7-1.1-1.6-1.1
			c-8.1,0-16.1,0-24.2,0c-0.8,0-1.2,0.2-1.5,1c-0.9,2.4-1.8,4.7-2.8,7.1c-0.1,0.3-0.6,0.8-0.9,0.8c-5.2,0-10.3,0-15.5,0
			c-0.1,0-0.1-0.1-0.3-0.1c0.1-0.4,0.2-0.7,0.4-1.1c7.4-18.6,14.9-37.1,22.3-55.7c0.3-0.9,0.7-1.2,1.7-1.2c5.9,0.1,11.8,0,17.8,0
			c0.8,0,1.2,0.2,1.5,1c7.5,18.8,15,37.5,22.5,56.3C634.4,106,634.4,106.2,634.6,106.6z M610,85.7c-0.1-0.4-0.2-0.8-0.3-1.1
			c-2.5-6.6-5-13.2-7.5-19.8c-0.1-0.4-0.6-0.6-0.8-1c-0.3,0.3-0.7,0.6-0.9,0.9c-2.5,6.6-5,13.3-7.5,19.9c-0.1,0.3-0.2,0.6-0.3,1
			C598.5,85.7,604.2,85.7,610,85.7z"/>
		<path id="XMLID_500_" class="st0" d="M488.4,48.6c-0.2,0.6-0.3,1-0.4,1.4c-6.2,18.4-12.5,36.9-18.7,55.3c-0.3,1-0.8,1.3-1.8,1.3
			c-6.4-0.1-12.8,0-19.2,0c-0.8,0-1.1-0.2-1.3-1c-6.3-18.7-12.6-37.4-19-56.1c-0.1-0.3-0.2-0.5-0.3-0.9c5.5,0,11,0,16.5,0
			c1.1,3.6,2.2,7.2,3.3,10.8c3.1,10.2,6.2,20.4,9.4,30.6c0.2,0.6,0.2,1.2,1.1,1.2c1,0,0.9-0.7,1.1-1.3c4.1-13.5,8.3-26.9,12.4-40.4
			c0.3-0.9,0.6-1.2,1.5-1.2c4.7,0,9.4,0,14.1,0C487.5,48.5,487.9,48.6,488.4,48.6z"/>
		<path id="XMLID_499_" class="st0" d="M495.2,107.4c-4.3,0-7.2-1.8-8.1-5.2c-1.4-5.4,1.3-10.2,7.5-10.2c1.1,0,2.2,0.1,3.3,0.4
			c3.7,1,5.6,4,5.2,8.2c-0.3,3.6-2.8,6.2-6.5,6.7C496.1,107.4,495.5,107.4,495.2,107.4z"/>
	</g>
</g>
<g>
	<path class="st0" d="M304.2,173.1c-8.8,0-12.2-4.1-12.2-10.5c0-6.2,4-11.5,11.9-11.5c7.2,0,10.3,4.1,10.3,10.5v11.5H304.2z
		 M299.7,142.6c1.6,0,3,1.3,3,3c0,1.6-1.3,3-3,3c-1.7,0-3-1.4-3-3C296.8,144,298.1,142.6,299.7,142.6z M308.4,162.3
		c0-4.6-1.8-6.5-4.9-6.5c-3.4,0-5.4,2.6-5.4,6.2c0,4.3,2.1,6.4,6.8,6.4h3.5V162.3z M307,142.6c1.6,0,3,1.3,3,3c0,1.6-1.3,3-3,3
		c-1.7,0-3-1.4-3-3C304.1,144,305.4,142.6,307,142.6z"/>
	<path class="st0" d="M318.6,168.4h13.5c-0.3-6.7-3.6-10.9-10.8-12.8l1.5-5c9.4,2.5,14.6,7.6,15.2,17.8h2.6v4.7h-21.9V168.4z"/>
	<path class="st0" d="M339.8,173.1c-0.9,0-2.7-0.9-2.7-2.4c0-1.4,1.8-2.4,2.7-2.4h15.9c0.1-1.1,0.2-2.3,0.2-3.5
		c0-5.8-2.4-8.8-8.9-8.8c-1.8,0-3.5,0.2-5.1,0.5v-4.7c1.7-0.3,3.7-0.5,5.7-0.5c10.3,0,14.3,4.5,14.3,13.3c0,2.3-0.2,5.2-0.8,8.4
		H339.8z"/>
	<path class="st0" d="M368.7,184l0.4-4.9c0,0,3.6,0.8,7.1,0.8c4.7,0,7.9-1.8,7.9-6.1v-0.7h-3.6c-8.8,0-12.2-4.1-12.2-10.6
		c0-6,3.7-11.4,12-11.4c5.4,0,9.6,1.6,9.6,1.6v15.7h4.7v4.7h-4.7v0.1c0,6.3-4.1,11.4-14.3,11.4C372.2,184.6,368.7,184,368.7,184z
		 M384,156.6c0,0-1.7-0.8-4.3-0.8c-3.4,0-5.4,2.6-5.4,6.2c0,4.1,2.1,6.4,6.8,6.4h2.9V156.6z"/>
	<path class="st0" d="M401.3,169.6c-0.8,2.1-2.6,3.5-6.5,3.5h-1c-0.9,0-2.7-0.9-2.7-2.4c0-1.4,1.8-2.4,2.7-2.4h0.3
		c2.7,0,4.5-1.5,4.5-6.2c0-5.8,4-11.1,11.9-11.1c7.1,0,10.3,4.1,10.3,10.5v6.8h3.6v4.7h-13C405,173.1,402.9,171.7,401.3,169.6z
		 M415,162.3c0-4.6-1.8-6.5-4.9-6.5c-3.4,0-5.4,2.6-5.4,6.2c0,4.3,2.1,6.4,6.8,6.4h3.5V162.3z"/>
	<path class="st0" d="M423.8,173.1c-0.9,0-2.7-0.9-2.7-2.4c0-1.4,1.8-2.4,2.7-2.4h5.4V141h6v32.1H423.8z"/>
	<path class="st0" d="M442.5,141h6v32.1h-6V141z"/>
	<path class="st0" d="M476.6,173.1c-8.8,0-12.2-4.1-12.2-10.6c0-6,3.7-11.4,12-11.4c5.4,0,9.6,1.6,9.6,1.6v15.7h4.7v4.7H476.6z
		 M472.3,142.6c1.6,0,3,1.3,3,3c0,1.6-1.3,3-3,3c-1.7,0-3-1.4-3-3C469.4,144,470.7,142.6,472.3,142.6z M480.3,156.6
		c0,0-1.7-0.8-4.3-0.8c-3.4,0-5.4,2.6-5.4,6.2c0,4.1,2.1,6.4,6.8,6.4h2.9V156.6z M479.6,142.6c1.6,0,3,1.3,3,3c0,1.6-1.3,3-3,3
		c-1.7,0-3-1.4-3-3C476.6,144,478,142.6,479.6,142.6z"/>
	<path class="st0" d="M487.4,170.7c0-1.4,1.8-2.4,2.7-2.4h5.4v-16.7h6v16.7h4.7v4.7h-16.1C489.2,173.1,487.4,172.2,487.4,170.7z
		 M494.8,176.4c1.6,0,3,1.3,3,3c0,1.6-1.3,3-3,3c-1.7,0-3-1.4-3-3C491.8,177.7,493.1,176.4,494.8,176.4z M502.1,176.4
		c1.6,0,3,1.3,3,3c0,1.6-1.3,3-3,3c-1.7,0-3-1.4-3-3C499.1,177.7,500.4,176.4,502.1,176.4z"/>
	<path class="st0" d="M502.8,170.7c0-1.4,1.8-2.4,2.7-2.4h5.4v-16.7h6v16.7h4.7v4.7h-16.1C504.6,173.1,502.8,172.2,502.8,170.7z
		 M513.9,142.6c1.7,0,3.1,1.4,3.1,3.1c0,1.7-1.5,3.1-3.1,3.1c-1.7,0-3.1-1.5-3.1-3.1C510.7,144.1,512.2,142.6,513.9,142.6z"/>
	<path class="st0" d="M520.9,173.1c-0.9,0-2.7-0.9-2.7-2.4c0-1.4,1.8-2.4,2.7-2.4h5.4V141h6v11.9c0,2-0.1,4.6-0.5,6.7h0.1
		c2-5.5,6.7-8.5,11.5-8.5c6.3,0,9.6,3.9,9.6,10.3c0,6.6-3.8,11.7-13.9,11.7H520.9z M539.6,168.4c5.7,0,7.2-2.9,7.2-6.6
		s-1.5-5.9-4.7-5.9c-4.9,0-9,6.1-9.9,12.5H539.6z"/>
	<path class="st0" d="M557.9,184l0.4-4.9c0,0,3.6,0.8,7.1,0.8c4.7,0,7.9-1.8,7.9-6.1v-0.7h-3.6c-8.8,0-12.2-4.1-12.2-10.6
		c0-6,3.7-11.4,12-11.4c5.4,0,9.6,1.6,9.6,1.6v15.7h4.7v4.7h-4.7v0.1c0,6.3-4.1,11.4-14.3,11.4C561.4,184.6,557.9,184,557.9,184z
		 M573.2,156.6c0,0-1.7-0.8-4.3-0.8c-3.4,0-5.4,2.6-5.4,6.2c0,4.1,2.1,6.4,6.8,6.4h2.9V156.6z"/>
	<path class="st0" d="M583.1,173.1c-0.9,0-2.7-0.9-2.7-2.4c0-1.4,1.8-2.4,2.7-2.4h5.4V141h6v32.1H583.1z"/>
	<path class="st0" d="M601.8,141h6v32.1h-6V141z"/>
	<path class="st0" d="M635.9,173.1c-8.8,0-12.2-4.1-12.2-10.6c0-6,3.7-11.4,12-11.4c5.4,0,9.6,1.6,9.6,1.6v15.7h4.7v4.7H635.9z
		 M631.6,142.6c1.6,0,3,1.3,3,3c0,1.6-1.3,3-3,3c-1.7,0-3-1.4-3-3C628.6,144,629.9,142.6,631.6,142.6z M639.5,156.6
		c0,0-1.7-0.8-4.3-0.8c-3.4,0-5.4,2.6-5.4,6.2c0,4.1,2.1,6.4,6.8,6.4h2.9V156.6z M638.9,142.6c1.6,0,3,1.3,3,3c0,1.6-1.3,3-3,3
		c-1.7,0-3-1.4-3-3C635.9,144,637.2,142.6,638.9,142.6z"/>
	<path class="st0" d="M649.4,173.1c-0.9,0-2.7-0.9-2.7-2.4c0-1.4,1.8-2.4,2.7-2.4h5.4v-16.7h6v1.1c0,2-0.1,4.6-0.5,6.7h0.1
		c2-5.5,6.7-8.5,11.5-8.5c6.3,0,9.6,3.9,9.6,10.3c0,2.6-0.6,5-2,6.9h4.9v4.7h-16.2h-0.7H649.4z M668,168.4c5.7,0,7.2-2.9,7.2-6.6
		s-1.5-5.9-4.7-5.9c-4.9,0-9,6.1-9.9,12.5H668z"/>
	<path class="st0" d="M681,170.7c0-1.4,1.8-2.4,2.7-2.4h5.4v-16.7h6v16.7h4.7v4.7h-16.1C682.8,173.1,681,172.2,681,170.7z
		 M692.1,142.6c1.7,0,3.1,1.4,3.1,3.1c0,1.7-1.5,3.1-3.1,3.1c-1.7,0-3.1-1.5-3.1-3.1C689,144.1,690.4,142.6,692.1,142.6z"/>
	<path class="st0" d="M706.6,169.6c-0.8,2.1-2.6,3.5-6.5,3.5h-1c-0.9,0-2.7-0.9-2.7-2.4c0-1.4,1.8-2.4,2.7-2.4h0.3
		c2.7,0,4.5-1.5,4.5-6.2c0-5.8,4-11.1,11.9-11.1c7.1,0,10.3,4.1,10.3,10.5v6.8h3.6v4.7h-13C710.2,173.1,708.2,171.7,706.6,169.6z
		 M720.2,162.3c0-4.6-1.8-6.5-4.9-6.5c-3.4,0-5.4,2.6-5.4,6.2c0,4.3,2.1,6.4,6.8,6.4h3.5V162.3z"/>
	<path class="st0" d="M729.1,173.1c-0.9,0-2.7-0.9-2.7-2.4c0-1.4,1.8-2.4,2.7-2.4h5.4V141h6v32.1H729.1z"/>
	<path class="st0" d="M747.8,141h6v32.1h-6V141z"/>
</g>
<g>
	<path class="st0" d="M302.9,230.6c-8.9,0-10.9-4.8-10.9-10.2v-18.4h5.4v18c0,3.5,1.2,6,5.8,6c4.2,0,5.9-1.7,5.9-6.5v-17.5h5.4v17.2
		C314.6,227,310.3,230.6,302.9,230.6z"/>
	<path class="st0" d="M332.8,230.2v-13.2c0-2.1-0.6-3.4-2.6-3.4c-2.7,0-4.8,3-4.8,6.7v10h-5.3v-20.7h5c0,1-0.1,2.6-0.3,3.7h0
		c1.2-2.4,3.7-4.1,7-4.1c4.7,0,6.2,3,6.2,6.6v14.5H332.8z"/>
	<path class="st0" d="M347.2,206.4c-1.8,0-3.3-1.4-3.3-3.2c0-1.8,1.5-3.2,3.3-3.2s3.3,1.4,3.3,3.2
		C350.5,204.9,349,206.4,347.2,206.4z M344.5,230.2v-20.7h5.3v20.7H344.5z"/>
	<path class="st0" d="M367.9,204.2c-0.8-0.3-1.8-0.4-2.6-0.4c-2.3,0-3.4,1.2-3.4,4v1.7h4.8v4.1H362v16.6h-5.3v-16.6h-3.6v-4.1h3.6
		v-1.7c0-5.6,2.6-8.3,8.2-8.3c1.1,0,2.3,0.1,3.4,0.3L367.9,204.2z"/>
	<path class="st0" d="M373,206.4c-1.8,0-3.3-1.4-3.3-3.2c0-1.8,1.5-3.2,3.3-3.2s3.3,1.4,3.3,3.2C376.3,204.9,374.8,206.4,373,206.4z
		 M370.3,230.2v-20.7h5.3v20.7H370.3z"/>
	<path class="st0" d="M398.2,220.8h-12.8c0,3.7,1.7,5.6,5.7,5.6c2,0,4-0.4,6-1.2l0.6,4c-2.2,0.8-5,1.3-7.5,1.3
		c-6.5,0-10.2-3.3-10.2-10.6c0-6.2,3.7-10.9,9.8-10.9c6,0,8.6,3.9,8.6,8.8C398.4,218.6,398.3,219.9,398.2,220.8z M389.5,213
		c-2.2,0-3.8,1.6-4.1,4.3h7.7C393.2,214.5,391.7,213,389.5,213z"/>
	<path class="st0" d="M415.3,230.2c0-1,0.1-2.3,0.2-3.5h-0.1c-1.1,2.3-3.4,3.9-6.5,3.9c-5,0-7.5-3.8-7.5-9.7c0-7,4.1-11.8,10.9-11.8
		c0.9,0,1.7,0,2.6,0.2v-9.5h5.3v30.4H415.3z M415,213.6c-1-0.2-1.9-0.3-2.8-0.3c-3,0-5.2,1.9-5.2,7c0,3.9,1.1,5.9,3.5,5.9
		c2.8,0,4.5-3.2,4.5-6.8V213.6z"/>
	<path class="st0" d="M451.3,230.2l-8.7-15.5c-1-2-1.9-3.7-2.5-5.5c0.2,2.5,0.3,9.3,0.3,13.4v7.6h-5.2v-28.1h7.2l8.5,15.1
		c1,1.7,2,3.8,2.7,5.6c-0.2-2.8-0.3-9.7-0.3-13.7v-7.1h5.2v28.1H451.3z"/>
	<path class="st0" d="M475.3,230.2c0-1.2,0-2.4,0.2-3.5l0,0c-1,2.3-3.5,4-6.6,4c-3.7,0-5.9-2.5-5.9-5.9c0-4.9,4.7-7.2,11.9-7.2v-0.7
		c0-2.5-1-3.6-3.7-3.6c-1.9,0-4.4,0.6-6.2,1.4l-0.9-4.1c2.1-0.8,5-1.4,7.8-1.4c6.4,0,8.3,2.7,8.3,7.3v8.5c0,1.7,0,3.6,0.2,5.3H475.3
		z M474.9,221c-5.4,0-6.8,1.3-6.8,3.1c0,1.3,1,2.4,2.5,2.4c2.6,0,4.3-2.5,4.3-5V221z"/>
	<path class="st0" d="M492.6,230.6c-4.6,0-6-1.7-6-6.5v-10.5H483v-4.1h3.6v-6.4l5.3-1.4v7.8h5v4.1h-5v9.1c0,2.7,0.6,3.4,2.5,3.4
		c0.9,0,1.7-0.1,2.4-0.3l0.4,4.2C495.7,230.3,494,230.6,492.6,230.6z"/>
	<path class="st0" d="M503.9,206.4c-1.8,0-3.3-1.4-3.3-3.2c0-1.8,1.5-3.2,3.3-3.2c1.8,0,3.3,1.4,3.3,3.2
		C507.2,204.9,505.7,206.4,503.9,206.4z M501.2,230.2v-20.7h5.3v20.7H501.2z"/>
	<path class="st0" d="M520.5,230.6c-5.9,0-9.7-3-9.7-10.4c0-6.5,4.3-11.1,10.6-11.1c5.9,0,9.7,3.2,9.7,10.4
		C531.1,225.9,526.7,230.6,520.5,230.6z M521,213.6c-2.4,0-4.7,1.8-4.7,6.1c0,4.2,1.6,6.4,4.6,6.4c2.6,0,4.7-2.1,4.7-6.3
		C525.6,215.7,524.1,213.6,521,213.6z"/>
	<path class="st0" d="M548,230.2v-13.2c0-2.1-0.6-3.4-2.6-3.4c-2.7,0-4.8,3-4.8,6.7v10h-5.3v-20.7h5c0,1-0.1,2.6-0.3,3.7h0
		c1.2-2.4,3.7-4.1,7-4.1c4.7,0,6.2,3,6.2,6.6v14.5H548z"/>
	<path class="st0" d="M570.2,230.2c0-1.2,0-2.4,0.2-3.5l0,0c-1,2.3-3.5,4-6.6,4c-3.7,0-5.9-2.5-5.9-5.9c0-4.9,4.7-7.2,11.9-7.2v-0.7
		c0-2.5-1-3.6-3.7-3.6c-1.9,0-4.4,0.6-6.2,1.4l-0.9-4.1c2.1-0.8,5-1.4,7.8-1.4c6.4,0,8.3,2.7,8.3,7.3v8.5c0,1.7,0,3.6,0.2,5.3H570.2
		z M569.7,221c-5.4,0-6.8,1.3-6.8,3.1c0,1.3,1,2.4,2.5,2.4c2.6,0,4.3-2.5,4.3-5V221z"/>
	<path class="st0" d="M580.9,230.2v-30.4h5.3v30.4H580.9z"/>
	<path class="st0" d="M608.5,220.6c-1,0-2-0.1-2-0.1v9.7h-5.4v-28.1c0,0,3.9-0.2,7.9-0.2c6.9,0,10.7,3.1,10.7,8.7
		C619.6,216.2,615.7,220.6,608.5,220.6z M608.6,206.4c-1,0-2.1,0-2.1,0v9.4c0,0,1,0.2,2.3,0.2c3.5,0,5.2-1.9,5.2-5
		C614,208.1,612.4,206.4,608.6,206.4z"/>
	<path class="st0" d="M623.4,230.2v-30.4h5.3v30.4H623.4z"/>
	<path class="st0" d="M645.6,230.2c0-1.2,0-2.4,0.2-3.5l0,0c-1,2.3-3.5,4-6.6,4c-3.7,0-5.9-2.5-5.9-5.9c0-4.9,4.7-7.2,11.9-7.2v-0.7
		c0-2.5-1-3.6-3.7-3.6c-1.9,0-4.4,0.6-6.2,1.4l-0.9-4.1c2.1-0.8,5-1.4,7.8-1.4c6.4,0,8.3,2.7,8.3,7.3v8.5c0,1.7,0,3.6,0.2,5.3H645.6
		z M645.2,221c-5.4,0-6.8,1.3-6.8,3.1c0,1.3,1,2.4,2.5,2.4c2.6,0,4.3-2.5,4.3-5V221z"/>
	<path class="st0" d="M662.9,230.6c-4.6,0-6-1.7-6-6.5v-10.5h-3.6v-4.1h3.6v-6.4l5.3-1.4v7.8h5v4.1h-5v9.1c0,2.7,0.6,3.4,2.5,3.4
		c0.9,0,1.7-0.1,2.4-0.3l0.4,4.2C666.1,230.3,664.3,230.6,662.9,230.6z"/>
	<path class="st0" d="M683.9,204.2c-0.8-0.3-1.8-0.4-2.6-0.4c-2.3,0-3.4,1.2-3.4,4v1.7h4.8v4.1h-4.8v16.6h-5.3v-16.6H669v-4.1h3.6
		v-1.7c0-5.6,2.6-8.3,8.2-8.3c1.1,0,2.3,0.1,3.4,0.3L683.9,204.2z"/>
	<path class="st0" d="M693.9,230.6c-5.9,0-9.7-3-9.7-10.4c0-6.5,4.3-11.1,10.6-11.1c5.9,0,9.7,3.2,9.7,10.4
		C704.4,225.9,700,230.6,693.9,230.6z M694.4,213.6c-2.4,0-4.7,1.8-4.7,6.1c0,4.2,1.6,6.4,4.6,6.4c2.6,0,4.7-2.1,4.7-6.3
		C698.9,215.7,697.5,213.6,694.4,213.6z"/>
	<path class="st0" d="M719.7,214.3c-3.8-0.7-5.7,1.7-5.7,7.5v8.4h-5.3v-20.7h5c0,1-0.1,2.7-0.4,4.2h0.1c1-2.6,3-4.9,6.6-4.6
		L719.7,214.3z"/>
	<path class="st0" d="M748.4,230.2v-13.1c0-2.2-0.5-3.6-2.5-3.6c-2.3,0-4.7,2.7-4.7,6.7v9.9H736v-13.1c0-2-0.4-3.5-2.5-3.5
		c-2.5,0-4.7,2.9-4.7,6.7v9.9h-5.3v-20.7h5c0,1-0.1,2.5-0.2,3.7l0,0c1.2-2.5,3.7-4.2,6.8-4.2c3.7,0,5.2,2.1,5.7,4.1
		c1-2,3.2-4.1,6.7-4.1c4,0,6.2,2.2,6.2,6.9v14.2H748.4z"/>
</g>
<g id="XMLID_509_">
	<g id="XMLID_510_">
		<path id="XMLID_579_" class="st0" d="M112.4,217.5L112.4,217.5L112.4,217.5c-3-0.4-5.2-3.1-4.8-6.1l0,0c0.4-3,3.1-5.2,6.1-4.8l0,0
			c3,0.4,5.2,3.1,4.8,6.1l0,0c-0.3,2.8-2.7,4.9-5.5,4.9l0,0C112.9,217.6,112.7,217.5,112.4,217.5z"/>
		<path id="XMLID_578_" class="st0" d="M129.1,212.3c-0.6-3,1.4-5.9,4.4-6.5l0,0c3-0.6,5.9,1.4,6.5,4.4l0,0c0.6,3-1.4,5.9-4.4,6.5
			l0,0c-0.4,0.1-0.7,0.1-1.1,0.1l0,0C131.9,216.8,129.6,215,129.1,212.3z"/>
		<path id="XMLID_577_" class="st0" d="M90.1,211.2c-2.8-1.3-4-4.6-2.7-7.3l0,0c1.3-2.8,4.6-4,7.3-2.7l0,0c2.8,1.3,4,4.6,2.7,7.3
			l0,0c-0.9,2-2.9,3.2-5,3.2l0,0C91.7,211.7,90.9,211.5,90.1,211.2z"/>
		<path id="XMLID_576_" class="st0" d="M149.9,206.6c-1.5-2.7-0.5-6,2.1-7.5l0,0c2.7-1.5,6-0.5,7.5,2.1l0,0c1.5,2.7,0.5,6-2.1,7.5
			l0,0c-0.9,0.5-1.8,0.7-2.7,0.7l0,0C152.7,209.4,150.9,208.4,149.9,206.6z"/>
		<path id="XMLID_575_" class="st0" d="M70.9,198.3L70.9,198.3L70.9,198.3c-2.2-2.1-2.4-5.6-0.3-7.8l0,0c2.1-2.2,5.6-2.4,7.8-0.3
			l0,0c2.2,2.1,2.4,5.6,0.3,7.8l0,0c-1.1,1.2-2.6,1.8-4,1.8l0,0C73.3,199.7,71.9,199.2,70.9,198.3z"/>
		<path id="XMLID_574_" class="st0" d="M167.8,194.7c-2.2-2.1-2.3-5.6-0.3-7.8l0,0c2.1-2.2,5.6-2.4,7.8-0.3l0,0
			c2.2,2.1,2.4,5.6,0.3,7.8l0,0c-1.1,1.2-2.6,1.8-4,1.8l0,0C170.2,196.1,168.9,195.7,167.8,194.7z"/>
		<path id="XMLID_573_" class="st0" d="M212.4,213.4c-2.2-2.1-2.3-5.6-0.3-7.8l0,0c2.1-2.2,5.6-2.4,7.8-0.3l0,0
			c2.2,2.1,2.4,5.6,0.3,7.8l0,0c-1.1,1.2-2.6,1.8-4,1.8l0,0C214.8,214.9,213.4,214.4,212.4,213.4z"/>
		<path id="XMLID_572_" class="st0" d="M56.5,180c-1.5-2.7-0.5-6,2.1-7.5l0,0c2.7-1.5,6-0.5,7.5,2.1l0,0c1.5,2.7,0.5,6-2.1,7.5l0,0
			c-0.8,0.5-1.8,0.7-2.7,0.7l0,0C59.4,182.9,57.6,181.8,56.5,180z"/>
		<path id="XMLID_571_" class="st0" d="M181.2,177.8c-2.8-1.3-4-4.6-2.7-7.3l0,0c1.3-2.8,4.6-4,7.3-2.7l0,0c2.8,1.3,4,4.6,2.7,7.3
			l0,0c-0.9,2-2.9,3.2-5,3.2l0,0C182.8,178.3,182,178.2,181.2,177.8z"/>
		<path id="XMLID_570_" class="st0" d="M48.5,158.3c-0.6-3,1.4-5.9,4.4-6.5l0,0c3-0.6,5.9,1.4,6.5,4.4l0,0c0.6,3-1.4,5.9-4.4,6.5
			l0,0c-0.4,0.1-0.7,0.1-1.1,0.1l0,0C51.4,162.7,49.1,160.9,48.5,158.3z"/>
		<path id="XMLID_569_" class="st0" d="M188.8,157.7c-3-0.4-5.2-3.1-4.8-6.2l0,0c0,0,0-0.1,0-0.1l0,0c0,0,0-0.1,0-0.1l0,0
			c0.4-3,3.1-5.2,6.1-4.8l0,0c3,0.4,5.2,3.1,4.8,6.1l0,0l0,0l0,0c0,0,0,0.1,0,0.1l0,0c0,0,0,0.1,0,0.2l0,0c-0.3,2.8-2.7,4.8-5.5,4.8
			l0,0C189.2,157.7,189,157.7,188.8,157.7z"/>
		<path id="XMLID_568_" class="st0" d="M52.5,141.2c-3-0.4-5.2-3.1-4.8-6.1l0,0c0,0,0,0,0,0l0,0c0.4-3,3.1-5.2,6.1-4.8l0,0
			c3,0.4,5.2,3.1,4.8,6.1l0,0c-0.3,2.8-2.7,4.9-5.5,4.9l0,0C53,141.3,52.7,141.3,52.5,141.2z"/>
		<path id="XMLID_567_" class="st0" d="M183.2,131.6c-0.6-3,1.4-5.9,4.3-6.5l0,0c3-0.6,5.9,1.4,6.5,4.3l0,0l0,0l0,0
			c0.6,3-1.4,5.9-4.4,6.5l0,0c-0.4,0.1-0.7,0.1-1.1,0.1l0,0C186,136,183.7,134.2,183.2,131.6z"/>
		<path id="XMLID_566_" class="st0" d="M56.7,120.1c-2.8-1.3-4-4.6-2.7-7.3l0,0c1.3-2.8,4.6-4,7.3-2.7l0,0c2.8,1.3,4,4.6,2.7,7.3
			l0,0c-0.9,2-2.9,3.2-5,3.2l0,0C58.2,120.6,57.4,120.5,56.7,120.1z"/>
		<path id="XMLID_565_" class="st0" d="M176.4,113.1L176.4,113.1c-1.5-2.7-0.6-6,2.1-7.5l0,0c2.7-1.5,6-0.6,7.5,2.1l0,0
			c1.5,2.7,0.5,6-2.1,7.5l0,0c-0.8,0.5-1.8,0.7-2.7,0.7l0,0C179.3,115.9,177.4,114.9,176.4,113.1z"/>
		<path id="XMLID_564_" class="st0" d="M67.2,101.3c-2.2-2.1-2.4-5.6-0.3-7.8l0,0c2.1-2.2,5.6-2.4,7.8-0.3l0,0
			c2.2,2.1,2.4,5.6,0.3,7.8l0,0c-1.1,1.2-2.6,1.8-4,1.8l0,0C69.6,102.8,68.3,102.3,67.2,101.3z"/>
		<path id="XMLID_563_" class="st0" d="M164.1,97.6L164.1,97.6c-2.2-2.1-2.4-5.6-0.3-7.8l0,0c2.1-2.3,5.6-2.4,7.8-0.3l0,0
			c2.2,2.1,2.4,5.6,0.3,7.8l0,0c-1.1,1.2-2.6,1.8-4,1.8l0,0C166.5,99,165.2,98.6,164.1,97.6z"/>
		<path id="XMLID_562_" class="st0" d="M83,86.7c-1.5-2.7-0.5-6,2.1-7.5l0,0c2.7-1.5,6-0.5,7.5,2.1l0,0c1.5,2.7,0.5,6-2.1,7.5l0,0
			c-0.8,0.5-1.8,0.7-2.7,0.7l0,0C85.9,89.5,84,88.5,83,86.7z"/>
		<path id="XMLID_561_" class="st0" d="M147.7,86.6c-2.8-1.3-4-4.6-2.7-7.3l0,0c1.3-2.8,4.6-4,7.3-2.7l0,0c2.8,1.3,4,4.6,2.7,7.3
			l0,0c-0.9,2-2.9,3.2-5,3.2l0,0C149.3,87.1,148.5,86.9,147.7,86.6z"/>
		<path id="XMLID_560_" class="st0" d="M102.5,77.6c-0.6-3,1.4-5.9,4.4-6.5l0,0c3-0.6,5.9,1.4,6.5,4.4l0,0c0.6,3-1.4,5.9-4.4,6.5
			l0,0c-0.4,0.1-0.7,0.1-1.1,0.1l0,0C105.4,82.1,103.1,80.3,102.5,77.6z"/>
		<path id="XMLID_559_" class="st0" d="M128.7,81.2c-3-0.4-5.2-3.1-4.8-6.1l0,0c0.4-3,3.1-5.2,6.1-4.8l0,0c3,0.4,5.2,3.1,4.8,6.1
			l0,0c-0.3,2.8-2.7,4.9-5.5,4.9l0,0C129.2,81.3,129,81.3,128.7,81.2z"/>
		<path id="XMLID_558_" class="st0" d="M116.9,240.5c-3-0.1-5.4-2.7-5.3-5.8l0,0c0.1-3.1,2.7-5.4,5.8-5.3l0,0c3,0.1,5.4,2.7,5.3,5.8
			l0,0c-0.1,3-2.6,5.3-5.5,5.3l0,0C117.1,240.5,117,240.5,116.9,240.5z"/>
		<path id="XMLID_557_" class="st0" d="M133.6,234.4c-0.6-3,1.4-5.9,4.4-6.5l0,0c3-0.6,5.9,1.4,6.5,4.4l0,0c0.6,3-1.4,5.9-4.4,6.5
			l0,0c-0.4,0.1-0.7,0.1-1.1,0.1l0,0C136.5,238.8,134.2,237,133.6,234.4z"/>
		<path id="XMLID_556_" class="st0" d="M93.9,236.6L93.9,236.6L93.9,236.6c-2.9-0.9-4.6-3.9-3.7-6.9l0,0c0.9-2.9,3.9-4.6,6.9-3.7
			l0,0c2.9,0.9,4.6,3.9,3.7,6.9l0,0c-0.7,2.4-2.9,4-5.3,4l0,0C95,236.9,94.4,236.8,93.9,236.6z"/>
		<path id="XMLID_555_" class="st0" d="M154.9,228.8c-1.3-2.8-0.1-6,2.7-7.3l0,0c2.8-1.3,6-0.1,7.3,2.7l0,0c1.3,2.8,0.1,6-2.7,7.3
			l0,0c-0.8,0.4-1.6,0.5-2.3,0.5l0,0C157.9,232,155.9,230.8,154.9,228.8z"/>
		<path id="XMLID_554_" class="st0" d="M72.5,227.4L72.5,227.4L72.5,227.4c-2.6-1.5-3.5-4.9-2-7.6l0,0c1.5-2.6,4.9-3.5,7.6-2l0,0
			c2.6,1.5,3.5,4.9,2,7.6l0,0c-1,1.8-2.9,2.7-4.8,2.7l0,0C74.4,228.1,73.4,227.9,72.5,227.4z"/>
		<path id="XMLID_553_" class="st0" d="M174.3,218.3c-1.9-2.4-1.5-5.9,0.8-7.8l0,0c2.4-1.9,5.8-1.5,7.8,0.8l0,0
			c1.9,2.4,1.6,5.9-0.8,7.8l0,0l0,0l0,0c-1,0.8-2.3,1.2-3.5,1.2l0,0C176.9,220.4,175.3,219.7,174.3,218.3z"/>
		<path id="XMLID_552_" class="st0" d="M54,213.3L54,213.3L54,213.3c-2.2-2.1-2.3-5.6-0.1-7.8l0,0c2.1-2.2,5.6-2.3,7.8-0.1l0,0
			c2.2,2.1,2.2,5.6,0.1,7.8l0,0c-1.1,1.1-2.5,1.7-4,1.7l0,0C56.4,214.8,55.1,214.3,54,213.3z"/>
		<path id="XMLID_551_" class="st0" d="M190.5,203.5c-2.4-1.9-2.9-5.3-1-7.7l0,0c1.9-2.4,5.3-2.9,7.7-1l0,0c2.4,1.9,2.9,5.3,1,7.7
			l0,0c-1.1,1.4-2.7,2.2-4.4,2.2l0,0C192.7,204.6,191.5,204.2,190.5,203.5z"/>
		<path id="XMLID_550_" class="st0" d="M39.3,195.2c-1.6-2.6-0.8-6,1.7-7.6l0,0c2.6-1.6,6-0.8,7.6,1.8l0,0c1.6,2.6,0.8,6-1.8,7.6
			l0,0c-0.9,0.6-1.9,0.8-2.9,0.8l0,0C42.2,197.8,40.4,196.9,39.3,195.2z"/>
		<path id="XMLID_549_" class="st0" d="M202.8,185.2c-2.8-1.2-4.1-4.5-2.9-7.3l0,0c1.2-2.8,4.5-4.1,7.3-2.9l0,0
			c2.8,1.2,4.1,4.5,2.9,7.3l0,0c-0.9,2.1-2.9,3.3-5.1,3.3l0,0C204.2,185.6,203.5,185.5,202.8,185.2z"/>
		<path id="XMLID_548_" class="st0" d="M29.4,174.1c-1-2.9,0.6-6,3.5-7l0,0c2.9-1,6,0.6,7,3.5l0,0c1,2.9-0.6,6-3.5,7l0,0
			c-0.6,0.2-1.1,0.3-1.7,0.3l0,0C32.4,177.9,30.2,176.4,29.4,174.1z"/>
		<path id="XMLID_547_" class="st0" d="M210.3,164.5c-3-0.5-5-3.4-4.5-6.4v0c0.5-3,3.4-5,6.4-4.5l0,0c3,0.5,5,3.4,4.5,6.4l0,0
			c-0.5,2.7-2.8,4.6-5.4,4.6l0,0C210.9,164.6,210.6,164.6,210.3,164.5z"/>
		<path id="XMLID_546_" class="st0" d="M24.9,151.2L24.9,151.2L24.9,151.2c-0.2-3,2-5.7,5.1-5.9l0,0c3.1-0.2,5.7,2,5.9,5.1h0
			c0.2,3-2,5.7-5.1,5.9l0,0c-0.2,0-0.3,0-0.4,0l0,0C27.6,156.3,25.1,154.1,24.9,151.2z"/>
		<path id="XMLID_545_" class="st0" d="M206.7,137.5c0,0,0-0.1,0-0.1l0,0c0,0,0-0.1,0-0.1l0,0c-0.2-3.1,2-5.7,5.1-5.9l0,0
			c3-0.2,5.7,2,5.9,5.1l0,0c0,0,0,0.1,0,0.1l0,0c0,0,0,0.1,0,0.1l0,0c0.2,3-2.1,5.7-5.1,5.9l0,0c-0.1,0-0.3,0-0.4,0l0,0
			C209.3,142.6,206.9,140.4,206.7,137.5z"/>
		<path id="XMLID_544_" class="st0" d="M30.5,134.3c-3-0.5-5-3.3-4.5-6.4l0,0c0.5-3,3.3-5,6.4-4.5l0,0c3,0.5,5,3.4,4.5,6.4l0,0
			c-0.5,2.7-2.8,4.6-5.4,4.6l0,0C31.1,134.4,30.8,134.4,30.5,134.3z"/>
		<path id="XMLID_543_" class="st0" d="M202.6,117.1c-1-2.9,0.6-6,3.5-7l0,0c2.9-1,6,0.6,7,3.5l0,0c1,2.9-0.6,6-3.5,7l0,0
			c-0.6,0.2-1.2,0.3-1.7,0.3l0,0C205.5,120.9,203.4,119.4,202.6,117.1z"/>
		<path id="XMLID_542_" class="st0" d="M35.4,112.9c-2.8-1.2-4.1-4.5-2.9-7.3l0,0c1.2-2.8,4.5-4.1,7.3-2.9l0,0
			c2.8,1.2,4.1,4.5,2.9,7.3l0,0c-0.9,2.1-2.9,3.3-5.1,3.3l0,0C36.9,113.3,36.1,113.2,35.4,112.9z"/>
		<path id="XMLID_541_" class="st0" d="M193.8,98.4L193.8,98.4c-1.6-2.6-0.8-6,1.7-7.6l0,0c2.6-1.6,6-0.8,7.6,1.7l0,0l0,0l0,0
			c1.6,2.6,0.9,6-1.7,7.6l0,0c-0.9,0.6-1.9,0.8-2.9,0.8l0,0C196.7,101,194.9,100.1,193.8,98.4z"/>
		<path id="XMLID_540_" class="st0" d="M235.4,73.2L235.4,73.2c-1.6-2.6-0.8-6,1.7-7.6l0,0c2.6-1.6,6-0.8,7.6,1.7l0,0l0,0l0,0
			c1.6,2.6,0.9,6-1.7,7.6l0,0c-0.9,0.6-1.9,0.8-2.9,0.8l0,0C238.3,75.8,236.5,74.9,235.4,73.2z"/>
		<path id="XMLID_539_" class="st0" d="M45.3,93.2c-2.4-1.8-2.9-5.3-1.1-7.7l0,0c1.9-2.4,5.3-2.9,7.7-1.1l0,0c2.4,1.8,2.9,5.3,1,7.7
			l0,0c-1.1,1.4-2.7,2.2-4.4,2.2l0,0C47.5,94.4,46.3,94,45.3,93.2z"/>
		<path id="XMLID_538_" class="st0" d="M180.9,82.4c-2.2-2.1-2.3-5.6-0.1-7.8l0,0c2.1-2.2,5.6-2.3,7.8-0.1l0,0
			c2.2,2.1,2.3,5.6,0.1,7.8l0,0c-1.1,1.1-2.5,1.7-4,1.7l0,0C183.3,83.9,181.9,83.4,180.9,82.4z"/>
		<path id="XMLID_537_" class="st0" d="M12.1,44.2c-1.9-2.4-1.5-5.9,0.8-7.8l0,0c2.4-1.9,5.9-1.5,7.8,0.8l0,0
			c1.9,2.4,1.6,5.9-0.8,7.8l0,0c-1,0.8-2.3,1.2-3.5,1.2l0,0C14.8,46.2,13.2,45.5,12.1,44.2z"/>
		<path id="XMLID_536_" class="st0" d="M164.4,69.9c-2.6-1.5-3.5-4.9-2-7.6l0,0c1.5-2.6,4.9-3.5,7.6-2l0,0l0,0l0,0
			c2.6,1.5,3.5,4.9,2,7.6l0,0c-1,1.8-2.9,2.7-4.8,2.7l0,0C166.2,70.7,165.3,70.4,164.4,69.9z"/>
		<path id="XMLID_535_" class="st0" d="M77.6,63.7c-1.3-2.8-0.1-6,2.7-7.3l0,0c2.8-1.3,6-0.1,7.3,2.7l0,0c1.3,2.8,0.1,6-2.7,7.3l0,0
			c-0.8,0.4-1.6,0.5-2.3,0.5l0,0C80.5,66.9,78.5,65.7,77.6,63.7z"/>
		<path id="XMLID_534_" class="st0" d="M145.4,61.7c-2.9-0.9-4.6-3.9-3.7-6.9l0,0c0.9-2.9,3.9-4.6,6.9-3.7l0,0
			c2.9,0.9,4.6,3.9,3.7,6.9l0,0c-0.7,2.4-2.9,4-5.3,4l0,0C146.5,62,146,61.9,145.4,61.7z"/>
		<path id="XMLID_533_" class="st0" d="M151,13.8c-2.9-0.9-4.6-3.9-3.7-6.9l0,0c0.9-2.9,3.9-4.6,6.9-3.7l0,0
			c2.9,0.9,4.6,3.9,3.7,6.9l0,0c-0.7,2.4-2.9,4-5.3,4l0,0C152,14,151.5,13.9,151,13.8z"/>
		<path id="XMLID_532_" class="st0" d="M125.1,58.4c-3-0.1-5.4-2.7-5.3-5.8l0,0c0.1-3.1,2.7-5.4,5.8-5.3l0,0l0,0l0,0
			c3.1,0.1,5.4,2.7,5.3,5.8l0,0c-0.1,3-2.6,5.3-5.5,5.3l0,0C125.3,58.4,125.2,58.4,125.1,58.4z"/>
		<path id="XMLID_531_" class="st0" d="M155.3,252.5c-1.1-2.9,0.4-6,3.3-7.1l0,0c2.9-1,6,0.4,7.1,3.3l0,0c1,2.9-0.4,6-3.3,7.1l0,0
			c-0.6,0.2-1.3,0.3-1.9,0.3l0,0C158.2,256.1,156.1,254.7,155.3,252.5z"/>
		<path id="XMLID_530_" class="st0" d="M51.1,240.2C51.1,240.2,51.1,240.2,51.1,240.2L51.1,240.2c-2.5-1.8-3-5.3-1.2-7.7l0,0
			c1.8-2.5,5.3-3,7.7-1.2l0,0c2.5,1.8,3,5.2,1.2,7.7l0,0c-1.1,1.5-2.8,2.3-4.5,2.3l0,0C53.2,241.3,52.1,240.9,51.1,240.2z"/>
		<path id="XMLID_529_" class="st0" d="M33.7,224.6L33.7,224.6L33.7,224.6c-2.1-2.2-1.9-5.7,0.3-7.8l0,0c2.2-2.1,5.7-1.9,7.8,0.3
			l0,0c2.1,2.3,1.9,5.7-0.3,7.8l0,0c-1.1,1-2.4,1.5-3.7,1.5l0,0C36.3,226.4,34.8,225.8,33.7,224.6z"/>
		<path id="XMLID_528_" class="st0" d="M9.4,185c-1.1-2.9,0.4-6,3.3-7.1l0,0c2.9-1,6,0.4,7.1,3.3l0,0c1,2.9-0.4,6-3.3,7.1l0,0
			c-0.6,0.2-1.3,0.3-1.9,0.3l0,0C12.4,188.6,10.3,187.2,9.4,185z"/>
		<path id="XMLID_527_" class="st0" d="M3.6,162.4c-0.5-3,1.6-5.8,4.6-6.3l0,0c3-0.5,5.8,1.6,6.3,4.6v0c0.5,3-1.6,5.8-4.6,6.3l0,0
			c-0.3,0.1-0.6,0.1-0.9,0.1l0,0C6.4,167.1,4,165.1,3.6,162.4z"/>
		<path id="XMLID_526_" class="st0" d="M234.6,154.1c-3.1-0.1-5.4-2.7-5.3-5.7l0,0c0,0,0-0.1,0-0.1l0,0c0-0.1,0-0.1,0-0.2l0,0
			c0.1-3,2.7-5.4,5.7-5.3l0,0c3.1,0.1,5.4,2.7,5.3,5.7l0,0c0,0,0,0.1,0,0.1l0,0c0,0,0,0.1,0,0.1l0,0l0,0l0,0c-0.1,3-2.6,5.3-5.5,5.3
			l0,0C234.7,154.1,234.7,154.1,234.6,154.1z"/>
		<path id="XMLID_525_" class="st0" d="M7.5,144.8c-3-0.1-5.4-2.7-5.3-5.8l0,0c0,0,0,0,0,0l0,0c0.1-3.1,2.7-5.4,5.8-5.3l0,0
			c3,0.1,5.4,2.7,5.3,5.7l0,0c-0.1,3-2.6,5.3-5.5,5.3l0,0C7.7,144.8,7.6,144.8,7.5,144.8z"/>
		<path id="XMLID_524_" class="st0" d="M228.1,127c-0.5-3,1.6-5.8,4.6-6.3l0,0c3-0.5,5.8,1.6,6.3,4.6l0,0c0.5,3-1.6,5.8-4.6,6.3l0,0
			c-0.3,0-0.6,0.1-0.9,0.1l0,0C230.9,131.7,228.5,129.7,228.1,127z"/>
		<path id="XMLID_523_" class="st0" d="M9.5,122.6c-3-0.7-4.8-3.7-4.1-6.7l0,0c0.7-3,3.7-4.8,6.7-4.1l0,0c3,0.7,4.8,3.7,4.1,6.7l0,0
			c-0.6,2.5-2.9,4.2-5.4,4.2l0,0C10.4,122.8,10,122.7,9.5,122.6z"/>
		<path id="XMLID_522_" class="st0" d="M222.8,106.5c-1.1-2.9,0.4-6,3.3-7.1l0,0c2.9-1.1,6,0.4,7.1,3.3l0,0c1.1,2.9-0.4,6-3.3,7.1
			l0,0c-0.6,0.2-1.3,0.3-1.9,0.3l0,0C225.7,110.1,223.6,108.7,222.8,106.5z"/>
		<path id="XMLID_521_" class="st0" d="M15.8,101.2c-2.8-1.3-4-4.6-2.7-7.3l0,0c1.3-2.8,4.6-4,7.3-2.7l0,0c2.8,1.3,4,4.6,2.7,7.3
			l0,0c-0.9,2-2.9,3.2-5,3.2l0,0C17.4,101.7,16.6,101.6,15.8,101.2z"/>
		<path id="XMLID_520_" class="st0" d="M213.5,87.4c-1.6-2.6-0.8-6,1.8-7.6l0,0c2.6-1.6,6-0.8,7.6,1.8l0,0c1.6,2.6,0.8,6-1.8,7.6
			l0,0c-0.9,0.6-1.9,0.8-2.9,0.8l0,0C216.3,90.1,214.5,89.1,213.5,87.4z"/>
		<path id="XMLID_519_" class="st0" d="M200.7,70.6L200.7,70.6c-2.1-2.2-1.9-5.7,0.3-7.8l0,0c2.2-2.1,5.7-1.9,7.8,0.3l0,0
			c2.1,2.2,1.9,5.7-0.3,7.8l0,0c-1.1,1-2.4,1.5-3.7,1.5l0,0C203.3,72.3,201.8,71.7,200.7,70.6z"/>
		<path id="XMLID_518_" class="st0" d="M40.2,64.2c-2.1-2.2-1.9-5.7,0.3-7.8l0,0c2.2-2.1,5.7-1.9,7.8,0.3l0,0
			c2.1,2.3,1.9,5.7-0.3,7.8h0c-1.1,1-2.4,1.5-3.8,1.5l0,0C42.8,65.9,41.3,65.3,40.2,64.2z"/>
		<path id="XMLID_517_" class="st0" d="M184.9,56.5c-2.5-1.8-3-5.3-1.2-7.7l0,0c1.8-2.5,5.3-3,7.7-1.2l0,0c2.5,1.8,3,5.2,1.2,7.7
			l0,0c-1.1,1.5-2.8,2.3-4.5,2.3l0,0C187,57.5,185.9,57.2,184.9,56.5z"/>
		<path id="XMLID_516_" class="st0" d="M166.6,45.7L166.6,45.7c-2.8-1.3-4-4.6-2.7-7.3l0,0c1.3-2.8,4.6-4,7.3-2.7l0,0l0,0l0,0
			c2.8,1.3,4,4.6,2.7,7.3l0,0c-0.9,2-2.9,3.2-5,3.2l0,0C168.1,46.2,167.4,46.1,166.6,45.7z"/>
		<path id="XMLID_515_" class="st0" d="M69.2,40.9c-1-2.9,0.4-6,3.3-7.1l0,0l0,0l0,0c2.9-1.1,6,0.4,7.1,3.3l0,0c1,2.9-0.4,6-3.3,7.1
			l0,0c-0.6,0.2-1.3,0.3-1.9,0.3l0,0C72.1,44.5,70,43.1,69.2,40.9z"/>
		<path id="XMLID_514_" class="st0" d="M98.1,32.5c-0.5-3,1.6-5.8,4.6-6.3l0,0l0,0l0,0c3-0.5,5.8,1.6,6.3,4.6l0,0
			c0.5,3-1.6,5.8-4.6,6.3l0,0c-0.3,0-0.6,0.1-0.9,0.1l0,0C100.9,37.2,98.6,35.2,98.1,32.5z"/>
		<g id="XMLID_512_">
			<path id="XMLID_513_" class="st0" d="M144.4,173.6l-0.3,0.1c-0.4,0.1-0.9,0.2-1.4,0.2c-0.9,0-1.8-0.2-2.7-0.5
				c-1.6-0.6-6.9-3.9-11.8-6.9l-0.9-0.6l0.9-0.6c10.1-7,20.2-11.5,30-13.3c-0.9-0.5-2.8-1.2-6.3-1.2c-9.1,0-17.6,4.8-24.8,9.4
				l-0.9,0.6l-0.2-1.1c-1-7.2-1.5-21-1.7-31.1c5.8,3.6,9.7,9.8,10.4,16.8c0.8-2.3,1.2-4.7,1.2-7.2c0-6.4-2.7-12.5-7.4-16.7l-0.6-0.6
				l1.1,0c0.1,0,0.3,0,0.4,0c7.8,0,14.6,5.4,16.8,13c0.1-0.6,0.1-1.1,0.1-1.7c0-9.2-6.9-16.9-15.7-17.5l-0.7-0.1l0.5-0.5
				c2.3-2.4,5.2-3.9,8.3-4.2c-1.7-0.8-3.5-1.3-5.4-1.3c-2.7,0-5.4,0.9-7.6,2.6l-0.4,0.3l-0.1-0.4c-0.6-1.8-1.6-3.6-2.9-5
				c-1.3,1.4-2.3,3.1-2.9,5l-0.1,0.4l-0.4-0.3c-2.2-1.7-4.8-2.6-7.6-2.6c-1.9,0-3.7,0.4-5.4,1.3c3.2,0.3,6.1,1.8,8.3,4.2l0.5,0.5
				l-0.7,0.1c-8.8,0.7-15.7,8.4-15.7,17.5c0,0.6,0,1.1,0.1,1.7c2.2-7.6,9-13,16.8-13c0.1,0,0.3,0,0.4,0l1.1,0l-0.6,0.6
				c-4.7,4.2-7.4,10.3-7.4,16.7c0,2.5,0.4,4.9,1.2,7.2c0.7-7,4.6-13.2,10.4-16.8c-0.1,10.2-0.7,23.9-1.6,31.1l-0.2,1.1l-0.9-0.6
				c-7.2-4.5-15.7-9.4-24.8-9.4c-3.6,0-5.4,0.7-6.3,1.2c9.8,1.8,19.9,6.3,30,13.3l0.9,0.6l-0.9,0.6c-4.8,3-10.2,6.3-11.8,6.9
				c-0.8,0.3-1.8,0.5-2.7,0.5c-0.5,0-1-0.1-1.4-0.2l-0.3-0.1c-0.2-0.1-0.5-0.2-0.6-0.2c0,0.1,0,0.2,0,0.5c0,1.6,2.3,3.4,5.6,3.4
				c1.6,0,3.3-0.4,4.9-1.3c5.2-2.7,11.8-6.8,11.9-6.8l0.4-0.2l0.4,0.2c0.1,0,6.7,4.1,11.9,6.8c1.6,0.8,3.3,1.3,4.9,1.3
				c3.3,0,5.6-1.8,5.6-3.4c0-0.2,0-0.4,0-0.5C144.9,173.4,144.6,173.5,144.4,173.6"/>
		</g>
		<path id="XMLID_511_" class="st0" d="M148.8,38.8c-3-0.7-4.8-3.7-4.1-6.7l0,0c0.7-3,3.7-4.8,6.7-4.1l0,0c3,0.7,4.8,3.7,4.1,6.7
			l0,0c-0.6,2.5-2.9,4.2-5.4,4.2l0,0C149.6,38.9,149.2,38.9,148.8,38.8z"/>
	</g>
</g>
</svg>
