<?xml version="1.0" encoding="UTF-8"?>
<svg width="43px" height="52px" viewBox="0 0 43 52" version="1.1" xmlns="http://www.w3.org/2000/svg" xmlns:xlink="http://www.w3.org/1999/xlink">
    <!-- Generator: Sketch 51.3 (57544) - http://www.bohemiancoding.com/sketch -->
    <title>CTA15@1.5x</title>
    <desc>Created with Sketch.</desc>
    <defs>
        <linearGradient x1="94.6234953%" y1="50%" x2="5.66269137%" y2="55.7266874%" id="linearGradient-1">
            <stop stop-color="#0A6C6E" offset="0%"></stop>
            <stop stop-color="#349D80" offset="100%"></stop>
        </linearGradient>
    </defs>
    <g id="Page-1" stroke="none" stroke-width="1" fill="none" fill-rule="evenodd">
        <g id="Home_2" transform="translate(-585.000000, -1204.000000)" fill="url(#linearGradient-1)">
            <g id="CTA15" transform="translate(585.000000, 1204.000000)">
                <path d="M21.0692713,23.5925775 L21.0692713,45.0363229 C21.0692713,47.9615918 19.9422251,49.3428978 18.5494749,49.3428978 C17.1567247,49.3428978 16.0267947,48.1944522 16.0267947,46.2733859 C16.0267947,45.3127887 15.4624851,44.5324954 14.7655201,44.5324954 C14.0685552,44.5324954 13.5034591,45.3127887 13.5034591,46.2733859 C13.5034591,50.1138563 15.6811305,52.0000128 18.4662376,52.0000128 C21.2512136,52.0000128 23.2103707,50.6043848 23.428754,45.0363229 L23.428754,23.5925775 C23.1665892,23.5620154 22.6835507,23.5420669 22.2490126,23.5420669 C21.8146057,23.5420669 21.4625184,23.5620154 21.0692713,23.5925775" id="Fill-1"></path>
                <path d="M9.49943926,15.9801382 C9.6482313,15.5315333 9.81358476,15.0771624 9.99093548,14.6185629 C10.0380117,14.496321 10.0846966,14.3739509 10.1338593,14.2537591 C10.316035,13.802976 10.5137289,13.3509115 10.7248545,12.8974375 C10.7668449,12.8101767 10.8074008,12.7235566 10.850304,12.6366803 C11.0764262,12.1648828 11.3187186,11.6947511 11.5823974,11.2270539 C11.5850055,11.2210315 11.5889176,11.2155217 11.5913953,11.2103962 C12.8571057,8.962631 14.5519787,6.80020448 16.8189382,5.04999211 C7.73180027,6.6179948 0.694367193,14.1116561 -3.91214791e-05,23.3105539 C1.09784008,22.8488792 2.2885676,22.6151588 3.55688607,22.6151588 C5.33521826,22.6151588 6.90438092,23.0772179 7.93210226,23.4782842 C8.00864997,22.6175934 8.16435347,21.37826 8.45411325,19.9277582 C8.4607639,19.8962367 8.46676253,19.8645871 8.47276115,19.8335781 C8.51944612,19.605752 8.56782636,19.3744661 8.62194441,19.1363891 C8.62742141,19.1103774 8.63446328,19.0821875 8.64072272,19.0563039 C8.74543789,18.595398 8.86423679,18.1184751 8.99946671,17.6274572 C9.01068154,17.5838909 9.02150515,17.5409652 9.03402402,17.4966301 C9.09179341,17.2908434 9.15399657,17.0814688 9.21659094,16.8715817 C9.25219149,16.7534401 9.28779204,16.6359392 9.32508785,16.517157 C9.36303569,16.3940181 9.39707138,16.2738263 9.43762732,16.1499186 C9.45640563,16.0916167 9.47987852,16.0375432 9.49943926,15.9801382" id="Fill-4"></path>
                <path d="M26.0744681,5.03225806 C28.3421499,6.7848136 30.0373363,8.94984835 31.3032164,11.2005864 C31.3056941,11.2057183 31.3096064,11.2112352 31.312345,11.2171369 C31.5759015,11.6854259 31.8182014,12.1561526 32.044461,12.6285471 C32.0873656,12.7156617 32.1280532,12.8022631 32.1699145,12.8896343 C32.3809162,13.3436821 32.5790075,13.7963187 32.760928,14.2478006 C32.8099618,14.3680162 32.856909,14.4905411 32.9041171,14.6129378 C33.0813429,15.0721176 33.2468319,15.5270636 33.3957589,15.9762361 C33.4151899,16.0337138 33.4386635,16.0878557 33.457312,16.1462314 C33.4979996,16.2704242 33.5321667,16.3907681 33.5701157,16.5139345 C33.6074127,16.6328671 33.6430144,16.7505167 33.6783552,16.8688078 C33.7412123,17.0789605 33.8034174,17.2887283 33.8611886,17.4947754 C33.8737079,17.5390384 33.8845318,17.5820183 33.895747,17.6256398 C34.0309811,18.1174074 34.1497837,18.5948055 34.2546325,19.056423 C34.2606313,19.082211 34.2676734,19.1104366 34.273281,19.1364812 C34.3272703,19.3748595 34.3757825,19.6064381 34.4224689,19.8345525 C34.4285981,19.8656007 34.4343361,19.8972904 34.4409869,19.9288518 C34.7311469,21.3813175 34.8865945,22.6222192 34.9631445,23.483871 C35.9911586,23.0822971 37.5606307,22.6197815 39.3394093,22.6197815 C40.6078975,22.6197815 41.7986619,22.8537977 42.8967056,23.3159284 C42.2022777,14.1055178 35.1635831,6.60224504 26.0744681,5.03225806" id="Fill-7"></path>
                <path d="M24.8544344,5.02192956 C24.8544344,5.02192956 23.9198263,4.46024157 22.3525604,4.25222323 C22.3538442,4.23246085 22.3555132,4.21282679 22.3555132,4.19267943 L22.3555132,0.856173171 C22.3555132,0.461567143 22.0809079,0.126248264 21.7127134,0.039499101 C21.6753547,0.0260247488 21.6353001,0.0110104707 21.5888264,0.0110104707 L21.5496705,0.0110104707 C21.5465893,0.0110104707 21.5438933,0.0174268288 21.5408122,0.017555156 C21.5342648,0.0174268288 21.5277174,0.0193517363 21.5210417,0.0193517363 C21.0601566,0.0193517363 20.6865702,0.395478653 20.6865702,0.856173171 L20.6865702,4.19267943 C20.6865702,4.19922411 20.6873404,4.20551215 20.6875972,4.21205683 C19.8798288,4.29482785 18.9769306,4.53133481 18.0997084,5.02192956 C11.2920898,9.59473971 9.78413559,19.5874476 9.34918336,23.4740924 C11.8149825,22.331724 18.0038084,21.0974734 21.5028117,21.0795076 C25.0018149,21.0974734 31.1648364,22.331724 33.6310207,23.4740924 C33.1959401,19.5874476 31.6628233,9.59473971 24.8544344,5.02192956" id="Fill-9"></path>
            </g>
        </g>
    </g>
</svg>