<?xml version="1.0" encoding="UTF-8"?>
<svg width="48px" height="48px" viewBox="0 0 48 48" version="1.1" xmlns="http://www.w3.org/2000/svg" xmlns:xlink="http://www.w3.org/1999/xlink">
    <!-- Generator: Sketch 51.3 (57544) - http://www.bohemiancoding.com/sketch -->
    <title>CTA12@1.5x</title>
    <desc>Created with Sketch.</desc>
    <defs>
        <linearGradient x1="94.6234953%" y1="50%" x2="5.66269137%" y2="55.7266874%" id="linearGradient-1">
            <stop stop-color="#0A6C6E" offset="0%"></stop>
            <stop stop-color="#349D80" offset="100%"></stop>
        </linearGradient>
    </defs>
    <g id="Page-1" stroke="none" stroke-width="1" fill="none" fill-rule="evenodd">
        <g id="Home_2" transform="translate(-582.000000, -1082.000000)" fill="url(#linearGradient-1)">
            <g id="CTA12" transform="translate(582.000000, 1082.000000)">
                <path d="M38.4961707,29.6266537 C37.8617173,29.6266537 37.2633173,29.871443 36.8113707,30.3158953 L32.044544,35.0038244 C32.316864,35.5748222 32.4607573,36.203718 32.4607573,36.8548576 C32.4607573,38.0062191 32.0114773,39.0887202 31.1954773,39.9029109 C30.3794773,40.7169951 29.294464,41.1654918 28.1406507,41.1654918 C26.9867307,41.1654918 25.901824,40.7169951 25.085824,39.9029109 C24.269824,39.0887202 23.8204373,38.0062191 23.8204373,36.8548576 C23.8204373,35.7033898 24.269824,34.6209951 25.085824,33.8068044 C25.901824,32.9926137 26.9867307,32.5442235 28.1406507,32.5442235 C28.799424,32.5442235 29.4353707,32.6908843 30.011904,32.9678155 L34.7896107,28.2692435 C35.7838507,27.2913632 37.100224,26.752933 38.4961707,26.752933 L47.8478507,26.752933 C48.588544,20.2033277 46.6254507,13.4080816 41.9586773,8.16575787 L32.2437973,17.8590971 C33.0085973,19.4610838 32.7281707,21.4399397 31.4005973,22.764463 C30.584704,23.5786537 29.4997973,24.0270439 28.3458773,24.0270439 C27.1918507,24.0270439 26.1070507,23.5786537 25.2910507,22.764463 C23.6065707,21.083718 23.6065707,18.3491016 25.2910507,16.6683565 C26.1070507,15.8541659 27.1918507,15.4057756 28.3458773,15.4057756 C29.0014507,15.4057756 29.6347307,15.5509463 30.2091307,15.8252169 L39.9221973,6.13379335 C36.3809707,2.99538093 32.1330773,1.08261818 27.7294507,0.395292239 L27.7294507,3.24751397 C27.7294507,4.65494634 27.180224,5.9779796 26.1828907,6.97299512 L23.758144,9.39225898 C24.5230507,10.9942457 24.2425173,12.9731016 22.9150507,14.2976248 C22.0990507,15.1118155 21.014144,15.5602058 19.860224,15.5602058 C18.706304,15.5602058 17.6213973,15.1118155 16.8053973,14.2976248 C15.1209173,12.6168798 15.1209173,9.88226341 16.8053973,8.2015184 C17.6213973,7.38732772 18.706304,6.9390439 19.860224,6.9390439 C20.515904,6.9390439 21.1490773,7.0841082 21.7234773,7.35848514 L24.1464107,4.94092417 C24.5996373,4.48870244 24.849344,3.88726563 24.849344,3.24751397 L24.849344,0.121021729 C18.4271573,-0.104397339 11.931584,2.22706164 7.029184,7.11859157 C5.890304,8.25483991 4.89105067,9.47761596 4.02897067,10.7645694 L9.30609067,16.0300949 C9.88059733,15.755718 10.513664,15.6105472 11.1694507,15.6105472 C12.323264,15.6105472 13.4082773,16.0589375 14.2241707,16.8730217 C15.9086507,18.5537667 15.9086507,21.288596 14.2241707,22.9692346 C13.4082773,23.7834253 12.323264,24.2318155 11.1694507,24.2318155 C10.0153173,24.2318155 8.93041067,23.7834253 8.11451733,22.9692346 C6.78705067,21.6447113 6.506624,19.6658554 7.271424,18.0638687 L2.53137067,13.3343255 C-0.826069333,20.0276115 -0.843989333,27.9629375 2.47953067,34.6686758 L10.329664,34.6686758 C10.9708373,34.6686758 11.5736107,34.4195228 12.026944,33.9671947 L15.7569707,30.2452257 C14.9921707,28.6433455 15.2725973,26.6644896 16.6001707,25.3399663 C17.416064,24.5257756 18.5010773,24.0773854 19.6549973,24.0773854 C20.809024,24.0773854 21.8939307,24.5257756 22.709824,25.3399663 C24.394304,27.0207113 24.394304,29.7553277 22.709824,31.4360727 C21.8939307,32.250157 20.809024,32.6985472 19.6549973,32.6985472 C18.999424,32.6985472 18.366144,32.5534829 17.791744,32.279106 L14.0633173,35.9992656 C13.0660907,36.9943876 11.7400107,37.5423965 10.329664,37.5423965 L4.16667733,37.5423965 C4.997184,38.7551681 5.95025067,39.9094031 7.029184,40.9858377 C16.4020907,50.3380683 31.598784,50.3380683 40.9716907,40.9858377 C44.2267307,37.7380151 46.350144,33.7892435 47.344384,29.6266537 L38.4961707,29.6266537 Z" id="Fill-3"></path>
                <path d="M9.58512185,21.4142439 C9.9630501,21.7920077 10.4656206,22 11.0000556,22 C11.5343424,22 12.0370611,21.7920077 12.4149893,21.4142439 C13.1950036,20.6344209 13.1950036,19.3655791 12.4149893,18.5857561 C12.0370611,18.2079923 11.5343424,18 11.0000556,18 C10.4656206,18 9.9630501,18.2079923 9.58512185,18.5857561 C8.80495938,19.3655791 8.80495938,20.6344209 9.58512185,21.4142439 Z" id="Fill-12-Copy-2"></path>
                <path d="M18.5851219,12.4142439 C18.9630501,12.7920077 19.4656206,13 20.0000556,13 C20.5343424,13 21.0370611,12.7920077 21.4149893,12.4142439 C22.1950036,11.6344209 22.1950036,10.3655791 21.4149893,9.58575608 C21.0370611,9.2079923 20.5343424,9 20.0000556,9 C19.4656206,9 18.9630501,9.2079923 18.5851219,9.58575608 C17.8049594,10.3655791 17.8049594,11.6344209 18.5851219,12.4142439 Z" id="Fill-12-Copy-3"></path>
                <path d="M26.5851219,21.4142439 C26.9630501,21.7920077 27.4656206,22 28.0000556,22 C28.5343424,22 29.0370611,21.7920077 29.4149893,21.4142439 C30.1950036,20.6344209 30.1950036,19.3655791 29.4149893,18.5857561 C29.0370611,18.2079923 28.5343424,18 28.0000556,18 C27.4656206,18 26.9630501,18.2079923 26.5851219,18.5857561 C25.8049594,19.3655791 25.8049594,20.6344209 26.5851219,21.4142439 Z" id="Fill-12-Copy-4"></path>
                <path d="M18.5851219,29.4142439 C18.9630501,29.7920077 19.4656206,30 20.0000556,30 C20.5343424,30 21.0370611,29.7920077 21.4149893,29.4142439 C22.1950036,28.6344209 22.1950036,27.3655791 21.4149893,26.5857561 C21.0370611,26.2079923 20.5343424,26 20.0000556,26 C19.4656206,26 18.9630501,26.2079923 18.5851219,26.5857561 C17.8049594,27.3655791 17.8049594,28.6344209 18.5851219,29.4142439 Z" id="Fill-12-Copy-5"></path>
                <path d="M26.5851219,38.4142439 C26.9630501,38.7920077 27.4656206,39 28.0000556,39 C28.5343424,39 29.0370611,38.7920077 29.4149893,38.4142439 C30.1950036,37.6344209 30.1950036,36.3655791 29.4149893,35.5857561 C29.0370611,35.2079923 28.5343424,35 28.0000556,35 C27.4656206,35 26.9630501,35.2079923 26.5851219,35.5857561 C25.8049594,36.3655791 25.8049594,37.6344209 26.5851219,38.4142439 Z" id="Fill-12-Copy-6"></path>
            </g>
        </g>
    </g>
</svg>