<?xml version="1.0" encoding="UTF-8"?>
<svg width="45px" height="45px" viewBox="0 0 45 45" version="1.1" xmlns="http://www.w3.org/2000/svg" xmlns:xlink="http://www.w3.org/1999/xlink">
    <!-- Generator: Sketch 51.3 (57544) - http://www.bohemiancoding.com/sketch -->
    <title>CTA9@1.5x</title>
    <desc>Created with Sketch.</desc>
    <defs>
        <linearGradient x1="94.6234953%" y1="50%" x2="5.66269137%" y2="55.7266874%" id="linearGradient-1">
            <stop stop-color="#0A6C6E" offset="0%"></stop>
            <stop stop-color="#349D80" offset="100%"></stop>
        </linearGradient>
    </defs>
    <g id="Page-1" stroke="none" stroke-width="1" fill="none" fill-rule="evenodd">
        <g id="Home_2" transform="translate(-584.000000, -962.000000)" fill="url(#linearGradient-1)">
            <g id="CTA9" transform="translate(584.000000, 962.000000)">
                <path d="M33.9795918,11.0204082 L8.26530612,11.0204082 L28.4468417,6.95804715 L30.4458629,6.55570908 L30.8742315,6.46942188 C31.9057092,6.26171038 32.9111147,6.86535476 33.1627297,7.84269681 L33.9795918,11.0204082 Z" id="Fill-1"></path>
                <path d="M26.6326531,5.40607154 L4.59183673,10.1020408 L21.5190503,0.255259045 C21.9560499,0.00073878989 22.464765,-0.0659728038 22.9517793,0.0665094584 C23.4387935,0.198050795 23.8455235,0.514672111 24.0966213,0.956154195 L26.6326531,5.40607154 Z" id="Fill-3"></path>
                <path d="M32.536387,35.7630544 C30.4178336,35.7630544 28.6943467,34.0183209 28.6943467,31.8738646 L28.6943467,26.04008 C28.6943467,23.8955277 30.4178336,22.1507942 32.536387,22.1507942 L41.302256,22.1507942 L41.302256,14.8584915 C41.302256,13.7860714 40.4407495,12.9138966 39.3813306,12.9138966 L1.9210107,12.9138966 C1.53684457,12.9138966 1.17855493,13.0286514 0.87789494,13.2269776 C0.710693105,13.3358795 0.561879681,13.4709755 0.436099162,13.625645 C0.163306146,13.9610821 -9.47856e-06,14.3908369 -9.47856e-06,14.8584915 L-9.47856e-06,43.0553571 C-9.47856e-06,44.1278731 0.861591813,45.000048 1.9210107,45.000048 L39.3813306,45.000048 C40.4407495,45.000048 41.302256,44.1278731 41.302256,43.0553571 L41.302256,35.7630544 L32.536387,35.7630544 Z" id="Fill-5"></path>
                <path d="M34.8504298,32.0849073 C33.641114,32.0849073 32.6606579,31.0738118 32.6606579,29.826705 C32.6606579,28.5794991 33.641114,27.5685027 34.8504298,27.5685027 C36.0598415,27.5685027 37.0402017,28.5794991 37.0402017,29.826705 C37.0402017,31.0738118 36.0598415,32.0849073 34.8504298,32.0849073 M43.053551,24.8085657 L32.3481489,24.8085657 C31.2731909,24.8085657 30.4018343,25.7072512 30.4018343,26.8158016 L30.4018343,32.8376083 C30.4018343,33.9461588 31.2731909,34.8448442 32.3481489,34.8448442 L43.053551,34.8448442 C44.128509,34.8448442 45.0000576,33.9461588 45.0000576,32.8376083 L45.0000576,26.8158016 C45.0000576,25.7072512 44.128509,24.8085657 43.053551,24.8085657" id="Fill-8"></path>
            </g>
        </g>
    </g>
</svg>