<?xml version="1.0" encoding="UTF-8"?>
<svg width="42px" height="51px" viewBox="0 0 42 51" version="1.1" xmlns="http://www.w3.org/2000/svg" xmlns:xlink="http://www.w3.org/1999/xlink">
    <!-- Generator: Sketch 51.3 (57544) - http://www.bohemiancoding.com/sketch -->
    <title>CTA11@1.5x</title>
    <desc>Created with Sketch.</desc>
    <defs>
        <linearGradient x1="94.6234953%" y1="50%" x2="5.66269137%" y2="55.7266874%" id="linearGradient-1">
            <stop stop-color="#0A6C6E" offset="0%"></stop>
            <stop stop-color="#349D80" offset="100%"></stop>
        </linearGradient>
    </defs>
    <g id="Page-1" stroke="none" stroke-width="1" fill="none" fill-rule="evenodd">
        <g id="Home_2" transform="translate(-905.000000, -1079.000000)" fill="url(#linearGradient-1)">
            <g id="CTA11" transform="translate(905.000000, 1079.000000)">
                <path d="M33.2543217,48.1887974 L7.30976563,48.1887974 C6.59529075,48.1887974 6.01608778,48.7725435 6.01608778,49.4920621 C6.01608778,50.2120826 6.59529075,50.7955778 7.30976563,50.7955778 L33.2543217,50.7955778 C33.9687966,50.7955778 34.5479996,50.2120826 34.5479996,49.4920621 C34.5479996,48.7725435 33.9687966,48.1887974 33.2543217,48.1887974" id="Fill-1"></path>
                <path d="M7.1677924,14.183325 C7.1677924,12.4978396 8.52399926,11.1313315 10.1970862,11.1313315 L30.3668019,11.1313315 C32.0398888,11.1313315 33.3960956,12.4978396 33.3960956,14.183325 L33.3960956,26.9303735 C33.3960956,28.61611 32.0398888,29.9823671 30.3668019,29.9823671 L10.1970862,29.9823671 C8.52399926,29.9823671 7.1677924,28.61611 7.1677924,26.9303735 L7.1677924,14.183325 Z M13.6269642,8.16667399 L26.9366747,8.16667399 L26.9366747,4.41749779 L13.6269642,4.41749779 L13.6269642,8.16667399 Z M30.7362462,38.5011459 C29.4238843,38.5011459 28.3601438,37.4295225 28.3601438,36.1074353 C28.3601438,34.7855991 29.4238843,33.7137247 30.7362462,33.7137247 C32.048608,33.7137247 33.1123485,34.7855991 33.1123485,36.1074353 C33.1123485,37.4295225 32.048608,38.5011459 30.7362462,38.5011459 Z M9.82764189,38.5011459 C8.51528007,38.5011459 7.45153957,37.4295225 7.45153957,36.1074353 C7.45153957,34.7855991 8.51528007,33.7137247 9.82764189,33.7137247 C11.1400037,33.7137247 12.2037442,34.7855991 12.2037442,36.1074353 C12.2037442,37.4295225 11.1400037,38.5011459 9.82764189,38.5011459 Z M8.92906766,41.4123477 L8.82618128,41.498429 L12.8753705,41.498429 L12.9027737,41.4753401 L27.6608652,41.4753401 L27.6885175,41.498429 L31.7377068,41.498429 L31.6345713,41.4123477 C34.2744912,41.0283703 36.3048156,38.7465904 36.3048156,35.9809486 L36.3048156,10.447701 L36.3048156,10.3166969 L36.3048156,5.90321458 C36.3048156,3.59834583 31.7314788,1.64332323 25.3856563,0.947646384 L25.3856563,0.896700352 C25.3856563,0.401294112 24.9870651,0 24.4955522,0 L16.068585,0 C15.576823,0 15.1782317,0.401294112 15.1782317,0.896700352 L15.1782317,0.947646384 C8.83240927,1.64332323 4.25907247,3.59834583 4.25907247,5.90321458 L4.25907247,10.3166969 L4.25907247,10.447701 L4.25907247,35.9809486 C4.25907247,38.7465904 6.28939685,41.0283703 8.92906766,41.4123477 Z" id="Fill-3"></path>
                <path d="M35.3661082,44.0942924 C35.2769234,43.9921494 35.1730405,43.9050643 35.0562034,43.8350449 L32.2416507,41.4794811 L28.1927106,41.4794811 L30.7840522,43.6483264 L10.4703454,43.6483264 L13.061687,41.4794811 L9.01249779,41.4794811 L6.1984433,43.8347939 C6.08135711,43.9048133 5.97747425,43.9921494 5.88804033,44.0945434 L0.466949694,48.6315008 C-0.0826080445,49.0915209 -0.15784215,49.9134335 0.298544875,50.4670638 C0.554390658,50.7772573 0.9230876,50.9376244 1.29427574,50.9376244 C1.58574562,50.9376244 1.87895933,50.8389949 2.12035618,50.6367166 L7.35585275,46.2551069 L33.8985449,46.2551069 L39.1340414,50.6367166 C39.3756874,50.8389949 39.668652,50.9376244 39.9601219,50.9376244 C40.33131,50.9376244 40.7002561,50.7772573 40.9558528,50.4670638 C41.4124889,49.9134335 41.3370057,49.0915209 40.7874479,48.6315008 L35.3661082,44.0942924 Z" id="Fill-5"></path>
            </g>
        </g>
    </g>
</svg>