<?xml version="1.0" encoding="UTF-8"?>
<svg width="55px" height="61px" viewBox="0 0 55 61" version="1.1" xmlns="http://www.w3.org/2000/svg" xmlns:xlink="http://www.w3.org/1999/xlink">
    <!-- Generator: Sketch 51.3 (57544) - http://www.bohemiancoding.com/sketch -->
    <title>CTA3@1.5x</title>
    <desc>Created with Sketch.</desc>
    <defs>
        <linearGradient x1="94.6234953%" y1="50%" x2="5.66269137%" y2="55.7266874%" id="linearGradient-1">
            <stop stop-color="#0A6C6E" offset="0%"></stop>
            <stop stop-color="#349D80" offset="100%"></stop>
        </linearGradient>
    </defs>
    <g id="Page-1" stroke="none" stroke-width="1" fill="none" fill-rule="evenodd">
        <g id="Home_2" transform="translate(-579.000000, -710.000000)" fill="url(#linearGradient-1)">
            <g id="CTA3" transform="translate(579.000000, 710.000000)">
                <path d="M29.4987877,3.51479651 C29.8044433,5.7397607 28.2447882,7.79046687 26.0156711,8.09520679 C23.7869175,8.40006763 21.732253,6.84335455 21.427082,4.61839036 C21.1216687,2.39366803 22.6813238,0.342840932 24.9104409,0.038101014 C27.1391946,-0.266638905 29.1936167,1.28995325 29.4987877,3.51479651" id="Fill-1"></path>
                <path d="M34.1656339,16.8789778 L28.6418244,16.2312852 C28.4783376,13.0963034 28.0201556,10.11592 26.9172663,9.27522873 C26.1282915,8.67391566 23.6129106,8.14366799 23.6129106,8.14366799 C23.1121013,8.09766249 22.6323592,8.20725283 22.2209933,8.43254263 C22.0497449,8.51121328 21.8922949,8.62155168 21.7555425,8.76293443 C21.6385022,8.86828578 21.5314412,8.98485798 21.4357145,9.11115492 C20.603866,10.0204181 19.7794094,10.9360397 18.9450968,11.8426847 C17.5695653,13.3379258 15.8836921,14.5808223 15.1766455,16.5715264 C14.685569,17.954559 14.2371198,19.3556695 13.7579938,20.7440631 C13.6140958,21.1617282 13.4632986,21.5772739 13.3224807,21.9961857 C13.0203935,22.8968462 13.5816941,23.9043542 14.5762903,24.2459669 L14.5803559,24.247463 C15.5751985,24.5892003 16.6525853,24.1453532 16.9546725,23.2443187 C16.9546725,23.2443187 18.5641615,18.5700851 18.5727855,18.5451499 C18.7934373,17.9041898 19.1201645,17.3572355 19.6008922,16.8318502 L20.4455535,15.9078753 C20.237345,17.8256438 19.8650336,19.7228408 19.7154684,21.6468432 C19.5705849,23.5146166 19.785939,25.3260364 19.9697539,27.1827136 C20.1332407,28.836418 20.5167633,30.4255403 20.4301535,32.1058007 C20.3795182,33.087002 20.0622773,33.9653455 19.8353424,34.9092687 C19.2985586,37.1438393 18.8015685,39.3890074 18.2716839,41.6255729 C18.1451572,42.1596855 18.0112384,42.692302 17.8848349,43.2267887 C17.6408983,44.2544942 18.4674492,45.3594989 19.7369053,45.667823 L19.7425725,45.6688205 C21.0123982,45.9776433 22.2612799,45.3769536 22.5053397,44.348874 C22.5053397,44.348874 25.0677831,33.5451869 25.0718487,33.5279816 C25.4978754,31.7323957 25.188889,29.6105323 25.0091398,27.7713097 C26.3406888,28.2432089 29.1335169,29.5545527 29.6822511,29.7500449 C30.5387397,30.0556261 30.4713492,30.6200351 30.4002626,31.4606017 C30.2024029,33.8036406 30.0403944,36.1500457 29.8664356,38.4949548 C29.8458611,38.7798398 29.8245475,39.0648494 29.803357,39.3499838 C29.7256176,40.40437 30.716025,41.3608854 32.018622,41.4593796 L32.0242892,41.4597536 C33.326147,41.5582478 34.4641483,40.763562 34.5423805,39.7091758 C34.7837299,36.4426606 35.1194508,33.1657974 35.2600224,29.8950432 C35.3249489,28.3807267 35.5569351,26.7542017 33.7452744,26.246645 C33.6634694,26.2028837 28.6032627,24.0094562 28.6032627,24.0094562 C28.6467524,23.1572947 28.7047798,21.7579296 28.7175926,20.1476124 L33.7233448,20.7350865 C34.6574496,20.8445521 35.5128294,20.0772951 35.6333193,19.0214128 L35.6338121,19.0167998 C35.7545485,17.9609174 35.0994924,16.9885681 34.1656339,16.8789778" id="Fill-3"></path>
                <path d="M12.2230466,31.3531303 L12.2074287,31.3474665 L11.9779125,31.9318993 C11.9132677,32.0968102 11.7230001,32.1509463 11.5520173,32.0879851 L10.8375293,31.8240222 C10.6666823,31.761061 10.5565417,31.5962818 10.6215939,31.4305805 L10.8500237,30.8486504 C10.2068351,30.2506506 6.8303665,24.4 6.8303665,24.4 L4.13850811,31.2601374 C3.95136413,31.7372201 4.18943626,32.2522375 4.62578867,32.4131969 L15.8375873,36.5512499 C16.2739398,36.7124728 16.7504914,36.4611548 16.9381787,35.9840722 L19.6296296,29.1240665 C19.6296296,29.1240665 12.6592632,31.513958 12.2230466,31.3531303" id="Fill-5"></path>
                <path d="M19.2841307,28.3825938 C19.4621563,27.9376588 19.2779385,27.4359863 18.8634486,27.2856688 L8.21326343,23.4272731 C7.7987735,23.2772012 7.30752618,23.5246602 7.12962963,23.9698408 C7.12962963,23.9698408 10.3100948,29.4275708 10.9210579,29.9851212 L11.0695415,29.6136256 C11.1312054,29.459501 11.3288396,29.3796755 11.4913847,29.4386236 L12.1699458,29.6844861 C12.3321039,29.743557 12.4198266,29.9260503 12.3577757,30.0810346 L12.1952306,30.4876533 L12.2103241,30.4928113 C12.624685,30.6432516 19.2841307,28.3825938 19.2841307,28.3825938" id="Fill-7"></path>
                <path d="M16.2304383,25.9718932 C15.7772219,25.3462731 15.0537219,24.8605588 14.1930887,24.6037526 C13.33219,24.3466342 12.3799578,24.3324771 11.5108285,24.5634673 C11.3827225,24.5974027 11.277981,24.6697498 11.2307211,24.7565663 C11.1950108,24.8225635 11.1947453,24.8918918 11.2296591,24.9497695 L11.2376243,24.9634061 C11.2741311,25.0248231 11.3423658,25.0729157 11.4297168,25.0986275 C11.5249002,25.127254 11.6393327,25.1278786 11.7424813,25.1007094 C12.4529716,24.9118783 13.2320948,24.9234331 13.9355493,25.133708 C14.6398002,25.3435666 15.23161,25.7410071 15.6023871,26.2526415 C15.6564173,26.3267583 15.7420426,26.3856769 15.8374915,26.4143034 C15.9247097,26.4401194 16.0163088,26.439703 16.0967567,26.4128461 L16.1112267,26.4077454 C16.188223,26.3819294 16.2467668,26.3300894 16.2759723,26.2622184 C16.3146032,26.1726954 16.2974782,26.0640186 16.2304383,25.9718932" id="Fill-9"></path>
                <path d="M5.99700109,58.0428635 C5.97711002,59.6956047 4.6187658,61.0197831 2.96277451,60.9998086 C1.30690305,60.9803125 -0.0194477124,59.6241988 0.000203703707,57.9709792 C0.0199749455,56.3183576 1.37855882,54.994538 3.03419063,55.0143929 C4.69018192,55.0341282 6.01653268,56.3896439 5.99700109,58.0428635" id="Fill-11"></path>
                <path d="M16.2960713,53.9195343 C16.2759235,55.6039784 14.8918275,56.9535814 13.2040486,56.9331033 C11.5167581,56.9134785 10.1650208,55.5316956 10.1854129,53.846764 C10.2054386,52.1625637 11.5899009,50.8132045 13.2773135,50.8335607 C14.9644819,50.8534293 16.3163413,52.2355778 16.2960713,53.9195343" id="Fill-14"></path>
                <path d="M25.4627433,50.8702614 C25.4422299,52.5540855 24.058309,53.9034606 22.3707167,53.8831061 C20.6833686,53.8628733 19.3319271,52.4814428 19.3520742,50.7968874 C19.3722213,49.1128195 20.7565085,47.7634444 22.4441009,47.7835552 C24.1309606,47.8037879 25.4827683,49.1853403 25.4627433,50.8702614" id="Fill-16"></path>
                <path d="M35.6479284,46.8036551 C35.6274155,48.4872699 34.2432774,49.8367944 32.5562065,49.8164394 C30.8686471,49.7969376 29.5172321,48.4149913 29.5372567,46.7302796 C29.5577697,45.0464211 30.9417857,43.6968965 32.6291008,43.7168859 C34.3166601,43.7368752 35.667953,45.1188215 35.6479284,46.8036551" id="Fill-18"></path>
                <path d="M41.4403106,41.4631735 C40.3363512,41.6174822 39.4933321,42.5745371 39.4799005,43.6896791 C39.4725741,44.2976503 39.7028658,44.8716151 40.128527,45.3067509 C40.5538218,45.7417647 41.1234458,45.9855383 41.7323879,45.9923639 C41.8487548,45.9938266 41.9652438,45.9861477 42.0789244,45.9704243 C43.1834943,45.8164813 44.0265134,44.8584513 44.0398229,43.7442844 C44.0544756,42.4888507 43.0440494,41.4559822 41.7869692,41.4403807 C41.6707244,41.4392837 41.5543575,41.4470845 41.4403106,41.4631735 M42.1863776,46.7373359 C42.0343557,46.7584223 41.8783044,46.7686608 41.7232299,46.7663449 C40.9071963,46.7572034 40.1437902,46.4305469 39.5734336,45.8474406 C39.0033212,45.2646999 38.6943933,44.4947412 38.7039175,43.6806595 C38.7134418,42.9461698 38.9863485,42.2404454 39.4744057,41.6926863 C39.9568461,41.1504121 40.6168284,40.796331 41.3328574,40.6965057 C41.4851234,40.6745661 41.6411748,40.665059 41.7956387,40.6668873 C43.4808221,40.6871205 44.8350986,42.0713885 44.8145848,43.753304 C44.8064037,44.4870624 44.5326423,45.1930305 44.0454398,45.7409115 C43.5632436,46.2830639 42.902895,46.6371449 42.1863776,46.7373359" id="Fill-20"></path>
                <path d="M51.6613682,37.4821078 C50.5777843,37.6335314 49.7506275,38.5731706 49.7375664,39.6675824 C49.7304967,40.2640667 49.9562484,40.8277784 50.373841,41.2543 C50.7915534,41.6811804 51.3505403,41.9199176 51.9479913,41.9270941 C52.0615861,41.9285294 52.1763791,41.9213529 52.2880566,41.9058039 C53.3714009,41.7543804 54.1986776,40.8151 54.2123377,39.7206882 C54.2265969,38.4895647 53.2347996,37.4752902 52.0013137,37.4605784 C51.8873595,37.4596216 51.7728061,37.4664392 51.6613682,37.4821078 M52.3935033,42.657898 C52.2442004,42.6787098 52.0915425,42.6888765 51.9391242,42.6869627 C51.1382092,42.6776333 50.3886993,42.3572039 49.8294728,41.7851196 C49.2697669,41.2132745 48.9668475,40.4575922 48.9764336,39.6584922 C48.9845817,38.9385725 49.2531111,38.2455647 49.731695,37.7076882 C50.2052462,37.1753137 50.8527843,36.8278529 51.5558017,36.7302529 C51.7049847,36.7089627 51.8582418,36.6992745 52.0101808,36.7014275 C53.6635359,36.7209235 54.993122,38.0794294 54.9732309,39.7300176 C54.964244,40.4500569 54.6957146,41.1424667 54.2177298,41.6802235 C53.7442985,42.212598 53.0965207,42.5599392 52.3935033,42.657898" id="Fill-22"></path>
            </g>
        </g>
    </g>
</svg>