<?xml version="1.0" encoding="UTF-8"?>
<svg width="34px" height="49px" viewBox="0 0 34 49" version="1.1" xmlns="http://www.w3.org/2000/svg" xmlns:xlink="http://www.w3.org/1999/xlink">
    <!-- Generator: Sketch 51.3 (57544) - http://www.bohemiancoding.com/sketch -->
    <title>CTA10@1.5x</title>
    <desc>Created with Sketch.</desc>
    <defs>
        <linearGradient x1="94.6234953%" y1="50%" x2="5.66269137%" y2="55.7266874%" id="linearGradient-1">
            <stop stop-color="#0A6C6E" offset="0%"></stop>
            <stop stop-color="#349D80" offset="100%"></stop>
        </linearGradient>
        <linearGradient x1="94.6234953%" y1="50%" x2="5.66269137%" y2="55.7266874%" id="linearGradient-2">
            <stop stop-color="#039747" offset="0%"></stop>
            <stop stop-color="#7DB442" offset="100%"></stop>
        </linearGradient>
    </defs>
    <g id="Page-1" stroke="none" stroke-width="1" fill="none" fill-rule="evenodd">
        <g id="Home_2" transform="translate(-1225.000000, -1081.000000)">
            <g id="CTA10" transform="translate(1225.000000, 1081.000000)">
                <g id="Group-26">
                    <polygon id="Path" fill="url(#linearGradient-1)" points="10.4263125 28.8981459 15.8623697 36.7906894 7.47276064 48.9708843 0.225297946 43.9791178"></polygon>
                    <path d="M11.6932776,11.3474327 C11.6938913,11.3484146 11.6945049,11.3492737 11.6951186,11.3501328 L33.7654473,43.9793633 L26.5185982,48.9707616 L25.9377064,48.1272228 L2.20730122,13.6744364 L6.80816545,4.47737171 L6.90941956,4.27498622 L11.6932776,11.3474327 Z" id="Path" fill="url(#linearGradient-1)"></path>
                    <path d="M16.9955567,15.8544068 L14.0158629,11.449055 C15.5863449,11.1781849 17.6212458,11.0587664 19.9740232,11.4506505 L16.9955567,15.8544068 Z" id="Path" fill="#2A917C"></path>
                    <polygon id="Path" fill="url(#linearGradient-2)" points="31.7840577 13.6749273 23.5791606 25.5876887 18.1224843 17.5203745 27.0812029 4.27474075"></polygon>
                    <path d="M21.1134695,9.76602753 C17.7294956,9.06043977 14.8703249,9.33229173 12.8798531,9.7697095 L12.1916933,8.75213633 L12.0667519,8.56754701 C14.0926933,7.52321821 16.8011488,7.9100703 16.85331,7.9176797 C17.361667,7.99708747 17.8388501,7.64754599 17.9178896,7.13845258 C17.9969292,6.6291137 17.6481241,6.15193067 17.1386625,6.07276836 C17.1285985,6.07129558 17.1044202,6.06761361 17.0684597,6.06270432 C16.550775,5.9926242 13.4672497,5.64848294 11.0156728,7.01351114 L10.3334042,6.00489742 C10.5136978,5.884988 10.7035647,5.77612449 10.8993226,5.67511584 C13.3727458,4.39992766 16.9017893,4.57334834 16.9433955,4.57543479 C17.4578891,4.60722244 17.8981297,4.21079724 17.9274628,3.69642634 C17.9563048,3.18843752 17.573012,2.75310619 17.0683369,2.71370914 C17.0615867,2.71321821 17.0550818,2.71199088 17.0483316,2.71162269 C16.8374776,2.69947219 12.2873017,2.46898101 9.2884617,4.46006646 L8.56605961,3.39205034 L8.17761201,2.81778609 C12.4513948,0.949310164 16.7871573,0.410761007 21.0804545,1.2191984 C22.5309044,1.49240041 23.7468129,1.88489818 24.6738096,2.24990392 C25.1419105,2.43424778 25.537722,2.61171863 25.8499529,2.7630475 L21.1134695,9.76602753 Z" id="Path" fill="#228879"></path>
                    <polygon id="Path" fill="url(#linearGradient-1)" points="31.7840577 13.6749273 23.5791606 25.5876887 18.1224843 17.5203745 27.0812029 4.27474075"></polygon>
                </g>
            </g>
        </g>
    </g>
</svg>